<?xml version="1.0" standalone="no"?>
<!DOCTYPE svg PUBLIC "-//W3C//DTD SVG 20010904//EN"
 "http://www.w3.org/TR/2001/REC-SVG-20010904/DTD/svg10.dtd">
<svg version="1.0" xmlns="http://www.w3.org/2000/svg"
 width="850.000000pt" height="850.000000pt" viewBox="0 0 850.000000 850.000000"
 preserveAspectRatio="xMidYMid meet">
<metadata>
Created by potrace 1.14, written by Peter Selinger 2001-2017
</metadata>
<g transform="translate(0.000000,850.000000) scale(0.100000,-0.100000)"
fill="#000000" stroke="none">
<path d="M3577 8424 c-8 -8 47 -78 154 -194 107 -117 171 -206 216 -299 36
-74 37 -79 37 -196 1 -114 -1 -124 -33 -205 -64 -162 -218 -364 -398 -526 -49
-43 -101 -91 -118 -107 -16 -16 -57 -50 -90 -75 -33 -25 -67 -53 -76 -61 -10
-9 -59 -47 -110 -86 -283 -214 -436 -399 -484 -584 -19 -75 -19 -212 0 -275
69 -227 279 -447 610 -638 219 -126 693 -323 719 -298 4 4 0 13 -10 18 -11 5
-53 28 -94 49 -114 61 -199 124 -281 211 -236 249 -267 510 -103 852 40 81
153 265 173 280 4 3 18 21 31 40 13 19 128 141 255 270 331 335 439 480 514
687 87 239 54 472 -94 663 -135 174 -404 346 -700 449 -93 32 -107 35 -118 25z"/>
<path d="M4560 7246 c0 -9 4 -16 9 -16 20 0 208 -199 241 -255 33 -57 35 -63
35 -155 -1 -97 -1 -99 -57 -215 -40 -83 -108 -183 -197 -290 -42 -49 -173
-187 -293 -305 -222 -221 -266 -276 -336 -420 -105 -217 -14 -474 233 -655 81
-59 208 -134 280 -166 28 -12 68 -30 91 -40 106 -47 266 -100 286 -93 24 7 15
20 -19 28 -97 23 -215 123 -255 216 -11 25 -26 82 -33 127 -12 68 -12 96 0
170 34 227 159 482 417 855 40 58 128 237 161 328 46 126 61 216 54 331 -7
120 -25 179 -87 272 -74 114 -216 213 -380 265 -98 31 -150 37 -150 18z"/>
<path d="M4773 5598 c-16 -21 -63 -125 -63 -141 0 -17 32 -22 245 -37 167 -12
410 -35 525 -50 452 -59 687 -106 942 -191 213 -70 317 -128 370 -204 33 -48
35 -73 8 -117 -46 -78 -225 -174 -435 -233 -33 -10 -80 -23 -105 -30 -25 -7
-58 -16 -75 -19 -16 -3 -73 -15 -125 -26 -222 -49 -744 -121 -1020 -140 -74
-5 -184 -14 -245 -20 -195 -17 -1004 -42 -1185 -36 -595 20 -965 42 -1240 72
-74 8 -153 14 -174 14 -22 0 -76 6 -120 14 -45 8 -137 22 -206 31 -515 70
-905 186 -1062 317 -116 97 -75 199 118 296 108 54 287 112 479 155 320 73
693 126 1205 173 96 8 178 18 182 20 5 3 -26 38 -68 79 l-76 74 -117 -9 c-318
-26 -651 -59 -761 -76 -128 -20 -259 -42 -350 -59 -41 -8 -115 -21 -165 -30
-147 -27 -223 -45 -400 -97 -155 -46 -207 -66 -324 -126 -107 -54 -156 -93
-184 -146 -21 -38 -22 -53 -21 -231 1 -242 36 -611 80 -865 9 -47 20 -112 25
-145 68 -401 250 -989 424 -1371 44 -96 204 -415 220 -437 8 -12 15 -26 15
-32 0 -6 -62 -35 -137 -65 -271 -106 -494 -235 -623 -360 -63 -61 -140 -159
-140 -178 0 -5 -8 -24 -17 -43 -27 -53 -22 -218 7 -284 86 -190 319 -371 667
-520 104 -45 400 -147 513 -178 30 -8 82 -22 115 -31 279 -75 539 -123 1095
-200 122 -17 396 -41 625 -56 207 -13 1063 -13 1270 0 606 38 841 67 1470 180
51 9 383 92 439 110 556 174 828 308 1022 505 137 140 191 271 166 401 -15 77
-71 187 -129 253 -110 126 -382 292 -633 386 -25 10 -59 23 -77 31 -17 8 -35
14 -40 14 -5 0 -28 9 -51 20 l-43 21 36 62 c20 34 47 85 61 112 l26 50 116 -4
c518 -16 1053 268 1333 709 76 120 116 210 154 355 21 77 25 116 25 227 -1
187 -38 322 -129 460 -94 143 -215 238 -406 319 -104 44 -281 79 -399 79 l-88
0 6 28 c13 58 31 344 31 487 -1 171 -5 185 -79 253 -84 77 -343 186 -576 240
-172 41 -331 74 -455 96 -214 37 -278 46 -410 61 -77 8 -177 20 -221 26 -85
11 -162 18 -504 43 -113 8 -232 18 -265 22 -45 4 -64 2 -72 -8z m-3793 -1423
c218 -64 324 -86 495 -101 39 -4 75 -11 81 -15 6 -5 16 -64 23 -131 33 -335
100 -805 147 -1023 76 -350 140 -539 218 -639 l30 -39 -69 7 c-150 15 -273 59
-375 134 -55 41 -172 161 -216 222 -36 50 -124 196 -124 206 0 2 -12 28 -26
57 -35 72 -78 188 -123 332 -11 35 -46 174 -66 260 -24 103 -43 224 -60 375
-9 80 -20 181 -25 224 -6 44 -10 97 -10 119 0 44 -5 44 100 12z m6460 -301
c326 -106 490 -406 369 -674 -98 -216 -244 -359 -484 -475 -108 -53 -325 -115
-400 -115 l-34 0 25 58 c14 31 30 66 35 77 13 30 64 181 84 250 9 33 23 80 30
105 16 54 17 57 61 230 19 74 53 224 75 334 22 109 44 208 50 218 10 18 18 19
77 13 37 -3 87 -13 112 -21z m-5710 -2716 c117 -71 265 -133 420 -179 36 -10
79 -23 95 -28 65 -20 290 -71 400 -90 262 -46 393 -59 945 -92 397 -24 946 14
1400 96 201 36 250 47 420 94 289 79 532 198 647 316 38 41 41 42 47 22 9 -35
7 -109 -5 -150 -13 -47 -131 -175 -205 -222 -242 -155 -693 -288 -1184 -349
-381 -47 -451 -51 -940 -51 -492 1 -491 1 -885 51 -198 25 -354 54 -520 96
-44 11 -96 23 -115 28 -157 34 -479 171 -581 247 -157 116 -223 253 -173 360
l17 35 71 -70 c39 -38 105 -90 146 -114z"/>
</g>
</svg>
