<?xml version="1.0" standalone="no"?>
<!DOCTYPE svg PUBLIC "-//W3C//DTD SVG 20010904//EN"
 "http://www.w3.org/TR/2001/REC-SVG-20010904/DTD/svg10.dtd">
<svg version="1.0" xmlns="http://www.w3.org/2000/svg"
 width="1342.000000pt" height="1342.000000pt" viewBox="0 0 1342.000000 1342.000000"
 preserveAspectRatio="xMidYMid meet">
<metadata>
Created by potrace 1.14, written by Peter Selinger 2001-2017
</metadata>
<g transform="translate(0.000000,1342.000000) scale(0.100000,-0.100000)"
fill="#000000" stroke="none">
<path d="M6477 11616 c-12 -13 -17 -14 -17 -4 0 11 -2 11 -9 0 -6 -10 -32 -13
-100 -10 -50 2 -91 1 -91 -2 0 -3 -17 -5 -38 -5 -20 0 -42 -3 -49 -8 -7 -5
-17 -6 -22 -3 -5 4 -13 2 -16 -4 -5 -8 -11 -8 -20 0 -8 7 -15 7 -19 1 -3 -5
-15 -7 -26 -4 -11 3 -20 1 -20 -4 0 -5 -16 -9 -36 -8 -19 0 -37 -2 -39 -6 -3
-3 -16 -5 -30 -4 -14 2 -25 0 -25 -4 0 -4 -20 -7 -45 -6 -25 0 -45 -2 -45 -6
0 -6 -75 -23 -111 -24 -9 0 -28 -9 -44 -19 -15 -10 -24 -13 -21 -7 4 6 2 11
-3 11 -6 0 -11 -4 -11 -9 0 -5 -6 -9 -12 -8 -39 1 -59 -4 -52 -14 4 -8 0 -8
-15 0 -16 9 -21 9 -21 0 0 -7 -10 -9 -26 -6 -19 3 -24 1 -20 -10 5 -11 2 -11
-15 -2 -15 8 -19 8 -15 0 8 -12 8 -12 -49 -16 -22 -2 -42 -4 -45 -5 -3 -1 -9
-2 -13 -1 -5 1 -6 -3 -2 -9 3 -5 -3 -10 -14 -10 -12 0 -21 -6 -21 -12 0 -9 -3
-8 -10 2 -8 12 -10 12 -15 -2 -4 -9 -12 -15 -19 -12 -7 3 -18 -2 -25 -10 -10
-12 -18 -13 -32 -5 -14 7 -19 6 -19 -2 0 -6 -7 -8 -16 -5 -8 3 -13 2 -10 -3 3
-5 -1 -11 -9 -15 -8 -3 -15 0 -15 7 0 7 -5 4 -11 -6 -6 -9 -14 -15 -20 -12 -5
4 -9 1 -9 -6 0 -8 -4 -8 -16 1 -12 11 -15 11 -12 -1 2 -8 -4 -13 -14 -13 -10
1 -18 -2 -18 -8 0 -5 -4 -7 -9 -3 -5 3 -12 1 -16 -4 -3 -6 -13 -7 -23 -4 -15
6 -15 5 -3 -10 13 -16 12 -17 -12 -8 -21 8 -25 7 -20 -4 3 -10 -1 -15 -12 -15
-10 0 -14 5 -9 13 4 6 -1 5 -12 -4 -10 -9 -27 -15 -36 -14 -11 2 -15 -2 -11
-12 4 -11 0 -14 -13 -11 -11 2 -29 -7 -43 -22 -13 -14 -19 -18 -12 -9 8 12 7
16 -4 16 -14 0 -19 -11 -16 -31 1 -5 -5 -4 -13 4 -12 9 -16 10 -16 0 0 -7 -6
-10 -14 -7 -8 3 -17 -1 -20 -9 -3 -8 -11 -14 -18 -14 -9 0 -8 3 2 10 8 5 11
10 5 10 -20 0 -37 -18 -30 -30 6 -9 3 -9 -14 -1 -17 9 -21 9 -19 -1 2 -7 -4
-13 -12 -13 -8 0 -20 -6 -26 -14 -6 -8 -18 -11 -27 -8 -10 4 -16 2 -14 -6 1
-7 -6 -11 -16 -10 -11 0 -16 -4 -14 -11 4 -9 -3 -12 -21 -9 -21 4 -24 2 -12
-6 13 -10 8 -15 -12 -12 -5 0 -8 -3 -8 -9 0 -6 -3 -9 -7 -9 -20 3 -34 -2 -28
-11 3 -6 -1 -7 -9 -4 -10 4 -18 -1 -22 -10 -5 -13 -9 -14 -21 -5 -11 10 -13 9
-11 -2 2 -8 -4 -14 -12 -14 -8 0 -26 -11 -39 -25 -13 -14 -21 -20 -18 -15 3 6
-3 11 -13 11 -14 0 -16 -3 -8 -13 7 -9 7 -13 -2 -13 -6 0 -19 -8 -28 -18 -10
-10 -13 -12 -8 -5 16 24 -11 13 -30 -12 -17 -23 -42 -36 -29 -16 3 5 0 13 -6
17 -7 4 -9 3 -5 -4 3 -6 2 -13 -4 -17 -6 -4 -7 -12 -3 -18 5 -8 2 -8 -9 1 -12
10 -18 10 -28 -2 -6 -9 -9 -20 -5 -26 4 -6 3 -10 -2 -9 -4 1 -21 -3 -37 -10
-19 -7 -26 -16 -22 -26 5 -13 2 -14 -17 -4 -12 6 -19 8 -15 4 4 -4 1 -14 -7
-21 -19 -19 -26 -18 -18 4 3 9 3 14 -1 10 -4 -3 -9 -14 -10 -25 -2 -10 -12
-19 -24 -21 -11 -2 -26 -11 -34 -20 -11 -13 -11 -14 1 -7 10 5 12 4 7 -4 -6
-9 -11 -9 -24 1 -9 7 -13 8 -9 2 7 -11 -28 -46 -37 -37 -3 4 -6 1 -6 -6 0 -7
-7 -19 -15 -27 -18 -18 -20 -4 -2 16 6 8 2 6 -10 -4 -12 -10 -21 -23 -20 -30
1 -6 -6 -10 -15 -10 -11 1 -18 -5 -18 -16 0 -10 -7 -21 -16 -24 -13 -5 -14 -4
-6 7 9 10 8 14 -3 14 -7 0 -14 -3 -13 -6 2 -20 -3 -31 -12 -26 -6 4 -10 3 -9
-2 1 -4 1 -15 0 -23 -1 -13 -2 -13 -11 0 -8 13 -10 12 -10 -4 0 -15 -3 -16
-15 -6 -13 11 -14 10 -9 -5 6 -14 4 -16 -6 -10 -10 6 -12 4 -6 -10 5 -15 4
-16 -8 -6 -16 13 -25 4 -21 -21 3 -14 0 -16 -15 -8 -16 9 -18 7 -15 -11 4 -18
2 -19 -12 -7 -12 9 -15 9 -9 1 4 -8 2 -13 -6 -13 -9 0 -9 -3 2 -10 13 -8 12
-10 -3 -10 -10 0 -15 -4 -12 -10 3 -5 -1 -10 -9 -10 -9 0 -15 -6 -14 -12 2 -7
-5 -12 -14 -10 -12 2 -16 -3 -13 -18 3 -18 1 -19 -17 -9 -15 8 -19 8 -14 0 4
-6 1 -11 -6 -11 -8 0 -9 -3 -2 -8 6 -4 3 -14 -10 -26 -15 -15 -18 -16 -13 -3
4 11 2 14 -9 10 -9 -3 -12 -14 -10 -29 4 -21 3 -23 -16 -13 -15 8 -19 8 -14 0
4 -6 1 -11 -6 -11 -9 0 -9 -3 2 -10 11 -7 11 -10 2 -10 -7 0 -10 -5 -6 -11 4
-7 -2 -6 -17 2 -22 11 -23 11 -11 -4 12 -14 11 -16 -7 -12 -18 3 -20 1 -11
-15 9 -16 7 -18 -10 -15 -15 3 -20 -1 -18 -13 2 -9 -3 -16 -9 -14 -7 1 -13 -5
-13 -14 0 -8 -4 -12 -10 -9 -5 3 -10 -2 -10 -12 0 -15 -2 -16 -10 -3 -7 11
-10 11 -10 2 0 -8 -5 -10 -12 -6 -9 6 -9 3 0 -9 12 -14 11 -16 -7 -12 -19 3
-20 1 -10 -17 8 -15 8 -19 0 -14 -6 4 -11 1 -11 -6 0 -9 -3 -9 -10 2 -9 13
-10 13 -11 0 -1 -8 -1 -19 0 -24 1 -5 -5 -4 -13 3 -13 11 -15 10 -11 -7 2 -10
-5 -25 -16 -33 -20 -14 -27 -35 -7 -23 7 4 8 3 4 -4 -4 -6 -13 -9 -20 -6 -8 3
-17 0 -22 -7 -5 -8 -3 -10 7 -4 12 8 12 6 0 -8 -7 -9 -20 -17 -28 -17 -12 0
-13 -3 -4 -14 9 -11 7 -13 -12 -11 -15 2 -24 -2 -24 -11 0 -7 5 -11 11 -7 6 3
-5 -9 -24 -27 -19 -18 -29 -29 -23 -26 9 5 11 2 7 -8 -3 -9 -10 -13 -16 -10
-5 3 -12 -3 -15 -15 -3 -11 -9 -18 -14 -15 -5 3 -9 -2 -9 -11 0 -9 -4 -14 -9
-11 -5 3 -11 -4 -14 -15 -4 -14 -10 -18 -19 -13 -10 6 -10 5 -2 -7 9 -11 4
-21 -22 -45 -18 -17 -35 -30 -37 -28 -2 2 -4 -3 -4 -11 0 -8 4 -12 9 -9 5 4 4
-3 -3 -14 -7 -12 -16 -19 -20 -16 -13 7 -29 -23 -22 -41 5 -14 3 -16 -7 -10
-10 6 -12 4 -7 -8 4 -12 2 -14 -10 -10 -12 5 -14 3 -8 -7 6 -10 4 -12 -10 -6
-15 5 -16 4 -5 -9 8 -10 9 -15 2 -15 -6 0 -9 -7 -5 -15 3 -9 2 -15 -3 -13 -5
2 -11 -1 -13 -7 -2 -5 -11 -16 -20 -23 -9 -8 -11 -11 -4 -8 6 4 15 2 18 -4 4
-6 3 -10 -2 -9 -22 4 -32 -2 -27 -16 4 -10 0 -15 -15 -15 -15 0 -19 -4 -14
-17 4 -11 3 -14 -5 -9 -8 5 -10 2 -6 -8 4 -10 -1 -18 -10 -22 -13 -5 -14 -9
-5 -21 7 -8 8 -13 3 -12 -5 1 -16 1 -24 0 -13 -1 -13 -2 0 -11 11 -7 11 -10 2
-10 -7 0 -11 -4 -7 -9 3 -6 -4 -15 -15 -21 -11 -6 -20 -16 -20 -22 0 -6 7 -5
18 3 15 13 16 12 3 -3 -7 -10 -20 -18 -28 -18 -9 0 -13 -6 -9 -15 3 -8 1 -15
-5 -15 -6 0 -7 -4 -4 -10 3 -5 1 -10 -5 -10 -6 0 -8 -4 -5 -10 3 -5 1 -10 -5
-10 -6 0 -8 -4 -5 -10 3 -5 1 -10 -5 -10 -6 0 -8 -5 -4 -12 5 -7 2 -9 -8 -5
-12 4 -14 1 -11 -13 6 -23 -15 -63 -28 -54 -7 4 -7 -1 0 -15 9 -17 9 -21 -1
-19 -8 2 -13 -6 -12 -19 0 -12 -3 -20 -8 -17 -4 3 -8 0 -8 -6 0 -6 -4 -9 -9
-5 -6 3 -8 -6 -5 -21 3 -18 1 -23 -7 -18 -9 5 -10 1 -7 -14 4 -12 2 -20 -3
-16 -5 3 -9 0 -9 -5 0 -20 -3 -26 -19 -39 -9 -8 -10 -11 -3 -7 7 4 12 0 12
-10 0 -10 -6 -15 -13 -12 -8 3 -14 -4 -15 -19 -4 -49 -6 -55 -17 -50 -7 2 -11
-5 -10 -17 2 -27 -15 -67 -28 -67 -6 0 -5 -5 1 -12 11 -15 -10 -42 -24 -30 -5
4 -3 0 4 -9 10 -14 10 -18 -3 -22 -8 -4 -12 -13 -9 -22 4 -8 -1 -26 -10 -40
-9 -14 -14 -30 -11 -35 3 -6 1 -10 -5 -10 -6 0 -8 -5 -5 -10 3 -6 -1 -17 -9
-26 -9 -8 -16 -21 -16 -27 0 -7 4 -6 10 3 6 9 10 10 10 3 0 -6 -5 -15 -10 -18
-6 -3 -15 -26 -21 -51 -6 -24 -16 -44 -21 -44 -6 0 -4 -8 3 -17 10 -11 10 -14
2 -9 -12 7 -17 -10 -16 -51 1 -7 -3 -13 -8 -13 -5 0 -9 -5 -9 -11 0 -5 6 -7
13 -4 6 4 5 1 -3 -7 -8 -7 -16 -22 -18 -33 -1 -11 -5 -31 -8 -45 -2 -14 -5
-31 -6 -37 -1 -7 -6 -13 -11 -13 -5 0 -3 -8 4 -17 12 -14 12 -16 0 -8 -11 6
-13 4 -8 -8 3 -10 2 -17 -3 -17 -5 0 -6 -7 -3 -17 4 -9 2 -14 -3 -10 -5 3 -9
-12 -9 -34 0 -21 -4 -39 -8 -39 -5 0 -3 -8 4 -17 10 -11 10 -14 2 -9 -12 6
-18 -5 -14 -26 0 -5 -4 -8 -11 -8 -9 0 -9 -3 0 -12 8 -8 8 -17 1 -30 -5 -10
-7 -23 -4 -28 3 -6 0 -10 -7 -10 -9 0 -9 -3 2 -10 13 -8 13 -10 -2 -10 -14 0
-15 -5 -8 -30 5 -16 5 -30 1 -30 -5 0 -6 -12 -3 -26 4 -21 2 -25 -9 -19 -11 6
-11 5 -2 -5 9 -10 8 -16 -3 -27 -8 -8 -11 -20 -7 -26 10 -17 13 -37 4 -37 -4
0 -6 -16 -5 -35 2 -19 0 -35 -5 -35 -4 0 -7 -18 -7 -41 1 -22 -2 -46 -6 -52
-4 -6 -2 -17 4 -24 7 -9 7 -13 -2 -13 -9 0 -9 -4 -2 -13 7 -8 7 -18 2 -27 -5
-9 -5 -19 2 -27 6 -8 7 -13 1 -13 -6 0 -9 -12 -8 -27 1 -16 -4 -42 -11 -59 -9
-21 -10 -34 -3 -41 8 -8 7 -13 0 -17 -8 -5 -8 -13 -1 -27 6 -10 7 -19 3 -19
-10 0 -10 -41 0 -57 4 -7 3 -14 -2 -18 -6 -3 -7 -15 -2 -28 5 -12 5 -31 1 -42
-4 -11 -3 -25 2 -32 5 -7 5 -14 -2 -18 -6 -4 -7 -12 -1 -24 6 -10 6 -23 1 -31
-5 -9 -5 -19 2 -27 7 -9 7 -13 -1 -13 -9 0 -9 -5 -1 -20 8 -15 8 -20 -2 -21
-7 0 -4 -4 7 -9 14 -6 15 -9 5 -10 -13 -1 -13 -2 0 -13 12 -9 15 -38 16 -122
2 -122 3 -135 16 -135 5 0 4 -10 -3 -21 -8 -17 -8 -20 1 -14 10 6 10 3 2 -11
-6 -11 -7 -27 -2 -40 6 -15 5 -24 -3 -28 -7 -2 -6 -5 4 -5 11 -1 15 -10 14
-31 -1 -16 2 -35 6 -42 4 -7 3 -18 -2 -24 -7 -8 -6 -14 1 -19 12 -7 14 -41 3
-48 -5 -2 -3 -2 4 -1 15 4 21 -25 11 -54 -5 -15 -4 -21 2 -17 6 3 10 -3 10
-14 0 -12 4 -21 8 -21 4 0 8 -9 8 -20 0 -11 -5 -20 -10 -20 -5 0 -1 -10 10
-22 10 -12 13 -18 7 -14 -7 4 -13 2 -13 -3 0 -6 5 -11 11 -11 5 0 9 -8 7 -17
-1 -10 1 -23 4 -29 4 -6 9 -22 12 -37 4 -15 9 -39 12 -54 4 -16 7 -34 7 -40 0
-7 5 -13 10 -13 6 0 7 -3 4 -7 -4 -3 -1 -13 6 -21 8 -10 8 -13 1 -9 -7 4 -15
0 -18 -9 -3 -8 -2 -12 4 -9 17 11 31 -5 21 -23 -6 -11 -4 -20 7 -30 10 -7 11
-11 5 -7 -7 3 -13 1 -13 -4 0 -6 5 -11 11 -11 5 0 7 -4 4 -10 -3 -6 -1 -10 5
-10 6 0 8 -4 5 -10 -3 -6 0 -10 7 -10 9 0 9 -3 -2 -10 -12 -7 -12 -10 -1 -10
7 0 11 -6 8 -15 -4 -8 -2 -17 3 -20 6 -4 10 -14 10 -25 0 -10 7 -21 16 -24 13
-5 14 -9 4 -21 -10 -12 -9 -16 4 -21 12 -5 13 -10 5 -26 -8 -15 -8 -19 0 -14
6 4 12 2 12 -3 3 -28 19 -62 38 -85 9 -11 10 -16 3 -12 -17 10 -15 -9 3 -24
13 -11 13 -15 3 -21 -10 -7 -10 -9 1 -9 7 0 11 -6 8 -14 -4 -11 -1 -13 10 -9
11 4 14 2 9 -5 -4 -7 -2 -12 6 -12 9 0 9 -3 -2 -10 -11 -7 -11 -10 -2 -10 7 0
12 -8 11 -17 -3 -27 11 -54 25 -46 6 3 8 3 4 -2 -4 -4 -2 -15 5 -23 10 -13 9
-15 -3 -8 -9 4 -8 1 2 -7 10 -8 18 -24 18 -36 0 -11 4 -21 9 -21 5 0 12 -7 15
-16 3 -8 2 -12 -4 -9 -6 3 -10 2 -10 -3 0 -5 10 -14 23 -21 17 -9 17 -10 2 -6
-18 6 -18 5 3 -18 12 -13 22 -31 22 -40 0 -9 8 -21 18 -26 13 -8 14 -11 2 -11
-9 0 -6 -6 10 -16 16 -10 18 -13 6 -9 -19 6 -19 5 -2 -14 11 -12 16 -27 12
-37 -5 -14 -4 -15 9 -4 13 11 14 10 9 -4 -4 -10 0 -18 10 -22 9 -4 21 -16 27
-28 10 -20 10 -20 -5 -2 -9 11 -16 15 -16 8 0 -7 9 -17 20 -24 11 -7 20 -21
20 -30 0 -10 3 -18 8 -18 11 0 32 -52 25 -63 -4 -6 2 -8 14 -5 12 3 20 0 20
-8 0 -7 -4 -11 -9 -8 -4 3 -5 -2 -2 -10 3 -9 11 -13 17 -9 6 4 8 0 4 -11 -4
-10 -3 -15 3 -11 5 3 12 -6 16 -20 3 -14 11 -22 17 -18 6 3 7 1 3 -5 -4 -7 2
-22 14 -34 27 -30 70 -96 70 -108 0 -6 5 -10 10 -10 6 0 10 -7 10 -15 0 -8 8
-15 18 -16 15 0 14 -1 -2 -8 -19 -7 -19 -8 2 -13 12 -4 22 -14 22 -23 0 -10 5
-13 13 -9 7 5 7 1 -3 -12 -8 -10 -11 -16 -6 -12 14 11 49 -29 42 -48 -5 -13
-4 -14 7 -6 15 13 27 6 27 -16 0 -8 8 -21 18 -29 9 -8 12 -12 7 -9 -6 2 -12
-4 -12 -15 -2 -17 0 -18 13 -4 20 19 30 20 14 0 -10 -12 -10 -15 4 -15 9 0 16
-6 16 -14 0 -8 7 -17 16 -20 11 -4 14 -13 11 -27 -5 -17 -3 -18 11 -7 9 7 13
8 9 2 -4 -7 2 -14 13 -17 13 -3 18 -11 14 -20 -3 -8 0 -18 7 -23 7 -4 10 -3 5
4 -3 6 -1 14 6 18 7 4 10 3 5 -1 -4 -5 0 -19 8 -32 9 -13 13 -29 9 -35 -5 -7
0 -9 15 -5 18 4 20 3 10 -9 -9 -11 -8 -14 5 -14 9 0 16 -5 16 -11 0 -5 5 -7
10 -4 6 3 10 -1 10 -10 0 -10 5 -13 12 -9 8 5 9 2 5 -9 -4 -11 -1 -17 8 -17 8
0 15 -5 15 -11 0 -5 5 -7 12 -3 8 5 9 2 5 -10 -4 -11 -3 -15 4 -11 6 4 13 -2
16 -13 2 -11 15 -24 28 -30 17 -8 22 -17 19 -39 -4 -24 -3 -25 5 -8 8 17 10
18 10 3 1 -10 6 -18 12 -18 5 0 7 -4 4 -10 -3 -5 3 -10 14 -10 12 0 21 -5 21
-11 0 -5 -5 -7 -12 -3 -7 4 -8 3 -4 -4 4 -6 13 -9 21 -5 11 4 13 1 8 -13 -4
-11 -3 -15 4 -11 6 4 14 0 17 -9 3 -8 10 -12 16 -9 6 4 7 -1 3 -11 -4 -12 -3
-15 5 -10 7 4 12 1 12 -8 0 -10 6 -13 17 -9 11 4 14 3 9 -5 -4 -7 -2 -12 4
-12 6 0 8 -5 4 -12 -5 -8 0 -7 11 2 11 9 16 10 11 3 -4 -8 -1 -13 8 -13 9 0
16 -4 16 -10 0 -5 8 -10 17 -10 15 0 14 -2 -3 -15 -18 -14 -18 -14 4 -8 14 3
22 1 22 -8 0 -7 3 -10 6 -6 4 3 13 0 20 -8 17 -17 18 -28 2 -20 -7 4 -2 -3 12
-14 14 -11 33 -23 43 -27 9 -3 17 -13 18 -22 0 -14 2 -13 9 3 l9 20 1 -20 c2
-11 2 -24 1 -28 -1 -5 3 -6 9 -2 6 3 8 12 4 18 -6 13 13 -9 36 -42 8 -12 20
-19 27 -17 7 3 15 0 19 -6 4 -7 3 -8 -4 -4 -7 4 -12 2 -12 -3 0 -6 8 -11 18
-11 10 0 27 -7 38 -16 18 -14 18 -14 -6 -3 -23 11 -24 11 -11 -4 7 -10 22 -17
32 -17 10 0 23 -9 29 -20 6 -11 20 -20 31 -20 14 0 19 -5 16 -14 -4 -11 -1
-13 10 -9 11 4 14 2 9 -5 -4 -7 -2 -12 4 -12 6 0 8 -5 4 -12 -4 -7 -3 -8 5 -4
6 4 9 12 6 17 -3 5 1 6 10 3 11 -5 13 -10 5 -19 -8 -9 -4 -11 16 -7 15 3 24 1
21 -4 -3 -5 2 -18 10 -29 12 -16 14 -16 10 -3 -3 10 -3 20 2 22 4 3 8 -1 9 -9
1 -8 3 -21 4 -28 1 -8 7 -14 15 -14 9 0 10 4 1 14 -6 7 -9 16 -6 18 3 3 11 -6
18 -20 7 -14 18 -25 23 -25 5 0 21 -9 37 -20 15 -11 31 -16 36 -12 4 4 2 -2
-6 -12 -14 -18 -14 -19 10 -6 23 12 24 12 11 -4 -12 -14 -12 -16 4 -10 12 5
16 4 12 -3 -4 -7 0 -10 10 -8 10 2 29 -9 43 -24 14 -15 21 -21 16 -14 -12 18
-3 16 22 -6 12 -10 18 -21 15 -25 -4 -4 0 -4 10 0 10 3 17 1 17 -6 0 -6 4 -8
10 -5 6 3 10 1 10 -4 0 -6 5 -11 11 -11 5 0 7 4 4 10 -3 6 1 7 9 4 9 -3 13
-11 9 -17 -4 -6 0 -8 10 -4 9 3 16 3 16 -1 -3 -19 2 -30 17 -36 15 -6 15 -4 3
11 -13 17 -13 17 7 0 11 -9 26 -17 32 -17 7 0 12 -5 12 -11 0 -6 6 -9 14 -6 8
3 17 -1 20 -10 4 -8 13 -13 21 -9 8 3 20 -3 27 -12 7 -9 20 -17 28 -17 8 0 14
-6 12 -13 -2 -10 2 -10 18 -2 20 11 21 10 24 -12 0 -7 8 -13 16 -14 26 -2 60
-16 60 -25 0 -5 7 -6 15 -3 9 4 15 0 15 -7 0 -11 3 -11 10 1 7 11 10 11 10 2
0 -7 5 -10 12 -6 6 4 8 3 4 -4 -3 -6 -2 -13 4 -17 5 -3 10 0 10 7 0 8 3 9 8 3
4 -5 17 -19 30 -29 23 -20 23 -20 17 0 -4 12 -1 10 9 -6 10 -16 15 -19 16 -10
0 13 1 13 10 0 5 -8 10 -10 10 -5 0 6 5 2 11 -8 6 -9 15 -15 20 -11 5 3 16 0
24 -6 8 -6 19 -9 25 -5 5 3 10 1 10 -5 0 -6 5 -8 10 -5 6 3 10 1 10 -5 0 -6 5
-8 10 -5 6 3 10 1 10 -4 0 -6 5 -11 11 -11 5 0 7 4 4 10 -3 6 1 7 9 4 9 -3 16
-11 16 -16 0 -6 12 -8 26 -5 16 3 28 0 31 -9 3 -8 9 -11 14 -8 5 3 9 -1 9 -8
0 -9 3 -9 10 2 7 11 10 11 10 2 0 -7 5 -10 10 -7 6 3 10 2 10 -3 0 -6 7 -13
16 -16 9 -4 13 -2 8 5 -4 7 3 6 17 -2 13 -7 35 -14 48 -15 13 -2 28 -8 32 -15
4 -6 16 -9 28 -6 12 3 24 0 28 -5 4 -7 1 -8 -7 -3 -8 5 -11 4 -7 -1 3 -5 20
-11 38 -12 18 -2 36 -6 39 -11 3 -4 14 -7 25 -5 10 2 25 -2 32 -8 7 -5 19 -8
27 -5 8 3 17 -1 20 -9 3 -9 11 -12 17 -8 6 3 15 0 20 -7 5 -9 9 -9 9 -2 0 13
126 -12 149 -31 12 -9 13 -8 6 4 -8 13 -6 13 8 2 9 -8 21 -11 27 -7 5 3 10 1
10 -5 0 -7 6 -8 18 -1 11 6 24 6 35 0 9 -6 34 -12 54 -14 21 -2 38 -5 38 -6 0
-1 9 -3 20 -4 11 -2 46 -7 78 -12 31 -6 57 -6 57 -1 0 9 22 6 31 -4 3 -5 17
-9 32 -10 15 -1 27 -5 27 -8 0 -3 9 -6 20 -6 11 0 20 4 20 9 0 4 8 4 17 -2 11
-6 24 -6 35 0 10 5 18 6 18 2 0 -5 12 -8 28 -7 15 1 33 -4 41 -10 12 -9 13 -8
6 3 -6 10 -4 12 5 6 20 -12 160 -22 160 -12 0 5 6 5 13 -1 7 -6 19 -7 26 -3 7
5 28 5 47 1 21 -5 34 -4 34 2 0 7 4 7 13 0 7 -6 19 -7 26 -3 7 5 28 5 47 1 21
-5 34 -4 34 2 0 7 4 7 13 0 7 -6 18 -8 25 -4 6 4 38 5 71 2 33 -3 58 -3 55 1
-2 4 3 9 11 13 8 3 15 0 15 -7 0 -8 3 -8 9 2 5 8 16 11 25 8 8 -3 18 -2 22 4
4 7 10 6 19 -1 10 -8 15 -8 20 0 5 8 10 8 20 0 10 -8 15 -8 20 0 5 8 10 8 20
0 9 -7 15 -8 19 -1 4 6 13 8 20 5 8 -3 17 0 21 6 5 8 11 8 21 -1 11 -9 14 -8
14 4 0 12 7 13 34 7 19 -4 40 -4 47 1 8 5 22 6 33 3 12 -4 16 -2 12 5 -5 7 -1
9 8 5 9 -4 16 -1 16 6 0 9 3 10 13 1 8 -6 17 -8 20 -4 4 3 23 6 42 5 20 -1 34
2 31 6 -3 4 7 7 22 7 15 -1 40 5 56 13 15 7 25 9 22 4 -4 -6 2 -8 14 -5 11 3
17 10 14 15 -4 6 2 6 13 -1 15 -8 25 -7 39 4 11 8 24 14 29 15 6 0 3 -5 -5
-10 -9 -6 -10 -10 -3 -10 6 0 18 6 26 14 11 11 17 12 26 3 8 -8 11 -7 11 6 0
14 4 16 17 9 12 -7 24 -5 39 5 13 8 28 12 34 8 5 -3 10 -2 10 3 0 5 15 8 34 7
19 0 33 2 30 6 -2 4 3 9 11 13 8 3 15 0 15 -7 0 -9 3 -9 9 1 4 7 12 12 17 11
19 -3 35 1 30 9 -3 5 9 8 27 8 23 -1 31 3 29 13 -3 12 0 12 12 1 13 -10 16
-10 16 0 0 7 8 10 20 7 11 -3 18 -1 14 4 -3 5 4 9 15 9 12 0 21 6 21 13 0 8 4
7 10 -3 8 -12 10 -12 10 -1 0 8 3 12 6 8 4 -3 20 1 36 9 17 9 32 13 35 11 2
-3 13 3 24 14 21 21 44 26 33 7 -4 -7 1 -6 12 3 10 9 27 15 37 14 9 -2 15 1
11 6 -5 9 -4 10 34 14 12 1 30 9 40 17 9 9 27 14 39 13 12 -1 19 3 17 10 -5
11 1 13 50 17 14 1 22 7 19 14 -2 6 5 14 16 17 15 3 18 1 14 -12 -3 -9 4 -2
16 14 12 17 21 24 21 15 0 -12 2 -13 9 -1 5 8 14 10 22 5 12 -6 11 -5 0 9 -12
15 -12 17 1 12 9 -4 22 0 29 8 8 7 20 12 27 9 6 -2 15 4 18 12 5 13 9 14 21 5
11 -10 13 -10 11 1 -2 8 11 19 30 25 18 6 30 14 26 17 -3 4 4 4 17 1 15 -4 20
-3 15 5 -7 11 21 18 48 13 5 -1 4 5 -3 13 -11 13 -10 15 9 11 12 -2 23 2 27
10 3 8 9 15 15 15 5 0 7 -4 4 -8 -3 -5 1 -9 8 -9 8 0 12 7 8 15 -4 12 0 14 17
9 18 -4 20 -3 11 8 -10 11 -8 13 9 10 13 -2 18 1 15 9 -3 8 2 16 11 20 9 3 13
2 10 -3 -3 -5 -1 -12 5 -16 5 -3 10 0 10 8 0 13 22 25 44 23 5 -1 12 9 17 21
6 15 14 21 29 18 11 -2 18 -1 16 4 -3 4 -1 13 5 21 6 10 9 11 9 3 0 -7 5 -13
10 -13 6 0 9 4 8 9 -2 5 1 9 6 9 5 0 13 7 18 16 5 9 16 16 24 16 10 0 12 5 8
13 -6 9 -4 9 8 -1 14 -11 16 -10 14 13 -2 18 0 22 8 16 8 -7 19 0 35 20 20 25
26 27 39 17 9 -7 13 -8 10 -3 -3 6 4 19 15 30 11 11 16 13 12 5 -8 -13 -6 -13
8 -1 9 7 14 18 10 24 -3 6 -1 7 5 3 7 -4 12 -3 12 3 0 6 7 8 15 5 9 -4 15 0
15 10 0 9 3 15 8 15 4 -1 14 -1 22 0 12 1 12 3 2 10 -10 6 -5 11 18 19 17 7
29 16 25 21 -3 6 3 8 15 6 13 -3 18 0 14 7 -5 8 -1 9 11 4 16 -6 16 -4 4 11
-7 10 -9 15 -5 11 5 -5 15 1 23 12 8 11 23 20 33 20 12 0 17 5 14 14 -3 7 2
16 10 19 11 4 13 1 9 -11 -5 -13 -3 -14 6 -6 7 6 14 20 16 30 2 11 4 21 4 23
1 2 8 -2 16 -9 12 -10 14 -8 10 9 -2 12 0 19 6 16 5 -4 9 -1 9 4 0 6 9 11 21
11 13 0 18 4 13 12 -5 8 -2 9 10 5 13 -5 17 -3 13 7 -7 18 12 36 31 29 10 -4
13 -2 8 5 -4 7 -1 12 10 12 14 0 15 2 3 17 -13 15 -12 15 11 3 23 -12 24 -12
11 3 -12 16 -8 22 13 18 12 -2 36 19 36 32 0 6 -7 2 -16 -9 -15 -18 -15 -18
-4 3 6 14 16 20 26 16 10 -4 17 2 21 16 3 12 13 21 24 21 11 0 19 5 19 11 0 5
-4 8 -9 4 -5 -3 -13 -1 -16 5 -4 6 -3 10 2 9 21 -4 34 2 27 13 -5 7 -2 9 9 5
9 -3 21 1 29 11 12 16 11 16 -7 2 -18 -14 -19 -13 -8 1 7 9 10 18 7 21 -3 3 3
5 13 4 10 0 17 5 15 12 -1 8 2 11 8 7 5 -3 10 -1 10 5 0 6 8 14 18 17 9 4 26
16 37 27 20 20 20 20 -10 2 l-30 -17 33 29 c18 16 34 36 35 43 4 24 17 38 31
33 8 -3 17 0 22 7 5 8 3 10 -7 5 -8 -4 -6 -1 4 7 10 9 18 18 18 21 -1 3 0 5 2
4 6 -7 34 28 29 36 -3 5 3 6 13 2 16 -6 16 -4 4 11 -9 11 -10 14 -1 9 7 -4 12
-2 12 4 0 6 5 8 13 4 8 -5 7 -2 -2 9 -12 15 -12 17 4 10 15 -5 17 -3 12 11 -6
14 -3 17 9 12 11 -4 15 -2 11 8 -3 8 2 20 11 28 15 11 15 11 5 -3 -10 -13 -10
-16 2 -16 7 0 14 3 13 6 -2 25 4 51 13 51 5 0 7 -6 3 -12 -4 -8 -3 -10 2 -5 9
9 10 13 13 43 0 8 6 12 11 9 6 -3 10 1 10 9 0 9 5 16 10 16 6 0 10 10 10 21 0
17 3 19 14 10 12 -10 14 -9 11 6 -4 25 6 38 17 22 6 -10 7 -7 3 9 -6 21 -4 23
17 17 18 -5 20 -4 8 4 -13 10 -13 11 0 11 13 0 13 1 0 10 -13 8 -13 10 2 10
14 0 31 26 33 52 0 12 15 21 15 10 0 -7 4 -12 9 -12 4 0 6 11 4 24 -4 17 0 25
15 28 16 5 19 11 15 29 -5 17 -3 21 9 16 11 -4 15 0 14 11 -2 9 4 23 13 30 9
8 10 10 2 6 -9 -5 -12 -3 -7 4 4 7 15 12 24 12 15 0 15 2 2 10 -13 8 -12 10 4
10 12 0 16 5 12 15 -3 8 0 15 7 15 8 0 7 3 -2 9 -11 7 -9 10 9 13 13 1 25 10
27 18 4 13 3 13 -6 0 -6 -8 -11 -10 -11 -4 0 5 9 20 20 32 11 12 20 28 20 36
0 8 9 18 21 21 16 5 18 10 8 21 -9 11 -9 14 1 14 8 0 10 3 7 7 -4 3 1 12 11
20 9 8 11 11 3 7 -10 -5 -12 -3 -7 5 5 7 14 10 20 8 9 -4 12 3 9 21 -4 21 -2
24 6 12 9 -12 11 -11 11 8 0 14 4 21 11 16 8 -4 8 0 0 15 -9 17 -9 21 1 19 7
-2 12 5 11 15 0 12 4 16 12 13 10 -3 12 0 8 11 -5 12 -3 14 8 8 12 -8 12 -6 0
8 -8 11 -9 17 -3 17 6 0 16 10 23 21 7 15 8 19 0 15 -7 -5 -9 -1 -5 8 3 9 11
16 16 16 6 0 8 9 5 20 -3 11 -1 18 4 14 9 -5 13 9 10 35 -2 7 1 11 6 9 4 -3
16 3 25 13 15 16 15 18 1 24 -14 5 -14 7 2 19 10 7 15 18 11 24 -4 7 -2 12 4
12 6 0 8 5 5 10 -3 6 -1 10 5 10 6 0 9 4 6 9 -3 5 1 14 10 21 12 11 12 15 2
21 -10 7 -10 9 0 9 6 0 12 9 12 20 0 11 7 20 15 20 8 0 15 5 15 11 0 5 -4 7
-10 4 -6 -3 -7 1 -4 9 3 9 11 16 16 16 6 0 5 6 -2 15 -10 12 -9 15 5 15 15 0
15 2 5 16 -11 12 -11 15 1 12 9 -2 14 6 13 25 0 19 4 26 13 23 15 -6 13 15 -2
26 -6 5 -5 8 4 8 7 0 11 6 7 15 -3 8 -1 15 4 15 6 0 10 11 10 25 0 14 5 25 11
25 5 0 7 5 3 12 -4 6 1 17 11 25 11 7 13 13 7 13 -7 0 -12 5 -12 11 0 5 4 8 9
5 5 -3 12 1 15 10 3 8 2 12 -4 9 -6 -3 -7 1 -4 9 3 9 11 16 18 16 6 0 4 5 -4
10 -8 5 -10 10 -3 10 6 0 14 23 18 50 4 28 10 50 15 50 4 0 7 8 6 18 0 9 5 16
12 14 8 -1 11 2 7 8 -3 6 -11 7 -17 4 -6 -4 -6 1 1 14 6 11 11 30 11 41 0 12
6 21 13 21 8 0 7 4 -3 10 -8 5 -10 10 -4 10 15 0 25 38 13 46 -5 3 -1 17 9 32
9 14 12 23 5 19 -9 -6 -9 -1 1 18 7 14 12 37 10 51 -2 19 1 24 12 20 10 -4 13
-2 7 7 -10 16 -11 67 -1 73 4 3 4 12 1 21 -5 12 -3 14 8 8 11 -7 11 -5 -1 10
-10 12 -10 16 -2 11 10 -6 12 2 11 31 -2 21 1 44 5 51 4 7 3 12 -3 12 -6 0 -8
7 -5 15 4 8 11 12 16 9 6 -4 5 3 -1 15 -9 16 -9 19 1 16 10 -4 13 5 10 32 -2
21 -3 47 -2 58 1 11 2 37 3 58 1 20 5 37 8 37 4 0 7 32 7 71 0 38 3 73 6 76 3
3 1 12 -5 20 -6 7 -7 13 -2 13 5 0 6 24 3 55 -3 30 -3 61 1 67 4 7 3 18 -3 25
-6 7 -6 13 -1 13 5 0 6 24 3 55 -3 30 -3 61 1 67 4 7 3 18 -3 25 -6 7 -6 13
-1 13 5 0 6 24 3 55 -3 30 -3 61 1 67 4 7 3 18 -3 25 -6 7 -7 13 -2 13 5 0 9
11 9 25 0 14 -2 25 -5 25 -3 0 -7 8 -8 18 -3 30 -7 47 -15 59 -4 6 -3 15 3 18
8 5 8 11 0 20 -8 10 -8 15 0 20 8 5 8 11 -1 21 -9 11 -9 14 0 14 8 0 9 6 3 18
-5 9 -8 27 -7 39 1 19 -1 21 -13 10 -13 -10 -14 -9 -4 10 8 15 9 24 2 28 -7 5
-8 11 -1 19 6 7 6 17 1 26 -5 8 -6 18 -3 22 2 5 -1 16 -9 25 -11 14 -11 16 2
8 13 -8 13 -7 1 8 -8 10 -11 20 -8 24 4 3 2 12 -4 19 -7 8 -7 14 0 19 7 4 5
15 -7 33 -13 20 -14 24 -2 17 13 -8 13 -6 1 8 -7 9 -11 23 -8 31 3 7 -2 24
-10 37 -9 12 -11 19 -5 15 7 -4 12 -3 12 2 0 6 -7 12 -15 16 -11 4 -13 11 -5
30 7 18 5 26 -6 30 -12 5 -13 10 -3 27 9 17 8 20 -2 14 -9 -6 -11 -2 -7 13 4
12 2 22 -4 22 -5 0 -6 5 -3 10 3 6 1 10 -5 10 -6 0 -9 4 -6 8 3 5 -2 34 -10
66 -8 31 -12 61 -9 66 3 6 1 10 -6 10 -7 0 -9 8 -6 21 3 12 0 22 -9 26 -8 3
-11 9 -8 14 3 5 0 9 -5 9 -6 0 -11 4 -11 10 0 5 8 7 18 4 9 -3 7 1 -6 8 -12 8
-20 17 -16 20 3 4 -1 21 -9 38 -10 19 -11 28 -4 24 7 -4 2 4 -10 17 -18 20
-20 28 -11 37 9 9 9 12 0 12 -7 0 -12 9 -12 21 0 11 -7 28 -16 36 -13 13 -13
17 -2 24 10 7 10 9 1 9 -7 0 -12 3 -12 8 3 19 -2 33 -11 27 -6 -3 -7 1 -4 10
4 8 1 22 -6 30 -9 11 -10 15 -1 15 8 0 6 6 -4 16 -9 9 -14 23 -11 31 3 8 1 11
-4 8 -10 -6 -13 3 -13 37 0 9 -2 17 -6 16 -19 -2 -22 4 -11 18 11 12 11 15 -1
12 -8 -2 -14 4 -14 12 0 8 -6 20 -14 26 -8 6 -11 18 -8 28 4 10 3 15 -3 11
-11 -7 -17 6 -24 45 -2 14 -8 24 -14 23 -5 -1 -7 7 -4 19 4 16 2 19 -9 13 -11
-7 -11 -5 1 10 9 11 10 16 3 11 -8 -4 -13 -2 -13 5 0 6 -8 18 -17 26 -11 8
-12 11 -3 7 12 -7 13 -5 3 8 -7 8 -9 19 -5 23 4 5 0 6 -9 3 -9 -4 -16 -1 -16
8 0 7 4 11 9 8 4 -3 5 2 2 11 -4 9 -13 14 -20 11 -8 -3 -11 0 -8 8 3 8 1 17
-5 21 -6 3 -11 15 -11 26 0 10 -9 24 -20 31 -11 7 -20 16 -20 21 0 4 5 5 10 2
6 -3 10 -1 10 4 0 10 -14 15 -32 12 -5 0 -7 2 -6 7 4 15 -14 52 -25 52 -7 0
-6 4 3 10 12 8 12 10 -2 15 -9 4 -25 19 -34 33 l-17 27 22 -19 c11 -11 23 -17
26 -15 2 3 -9 13 -25 24 -16 11 -32 30 -35 43 -3 14 -10 20 -18 15 -7 -4 -5 2
3 12 14 17 13 18 -4 12 -17 -7 -17 -6 -5 10 8 9 9 14 4 11 -6 -4 -19 1 -30 9
-19 15 -19 15 -1 9 16 -5 17 -4 6 9 -7 8 -19 15 -26 15 -8 0 -11 6 -8 14 3 9
-3 20 -15 28 -26 16 -28 29 -3 22 9 -3 5 2 -10 11 -25 14 -34 32 -28 60 1 5
-2 7 -6 3 -11 -11 -34 11 -34 33 0 13 -5 17 -17 12 -11 -4 -14 -3 -9 5 4 7 2
12 -3 12 -6 0 -11 7 -11 16 0 8 -4 13 -9 9 -9 -5 -27 32 -23 48 1 4 -3 7 -9 7
-5 0 -7 6 -3 13 5 7 0 6 -11 -3 -12 -10 -16 -11 -11 -2 5 8 -2 22 -19 38 -15
14 -25 31 -22 38 3 7 -1 13 -9 13 -7 0 -11 -5 -8 -11 3 -6 -3 0 -14 14 -11 13
-19 27 -16 31 2 4 -3 9 -11 13 -8 3 -15 13 -15 21 0 10 -5 13 -12 9 -8 -5 -9
-2 -5 9 5 14 -7 31 -23 32 -3 0 -14 6 -25 12 -14 9 -16 13 -5 13 8 0 3 7 -12
16 -15 8 -35 28 -43 44 -9 17 -20 30 -25 30 -6 0 -10 7 -10 15 0 8 -8 15 -17
16 -15 0 -15 2 2 9 18 8 18 9 2 9 -10 1 -23 6 -30 11 -7 6 -21 18 -32 26 -11
9 -14 13 -7 9 6 -3 12 -1 12 4 0 6 -12 11 -26 11 -14 0 -23 4 -19 10 4 6 12 7
18 3 7 -4 6 1 -2 11 -10 12 -16 14 -22 5 -4 -8 -9 -4 -14 10 -3 12 -11 18 -17
15 -7 -5 -9 -1 -5 9 3 9 1 19 -5 23 -7 5 -8 2 -4 -7 4 -8 1 -5 -8 5 -8 10 -13
23 -9 29 3 6 1 7 -6 3 -6 -4 -9 -13 -5 -19 3 -7 -1 -3 -10 8 -8 11 -20 25 -26
32 -5 7 -10 20 -11 30 0 16 -1 16 -9 -2 -7 -17 -9 -17 -9 -2 -1 9 -8 17 -16
17 -8 0 -15 4 -15 10 0 5 -13 16 -30 25 -16 8 -36 28 -44 43 -9 15 -15 21 -16
13 0 -11 -4 -9 -14 4 -8 11 -12 23 -10 26 2 4 -3 12 -11 19 -13 11 -14 10 -9
-5 5 -13 4 -16 -4 -11 -7 4 -12 14 -12 22 0 8 -7 14 -15 14 -8 0 -15 4 -15 10
0 5 -12 13 -26 16 -18 5 -24 12 -21 24 2 9 -1 17 -9 17 -7 0 -11 -5 -7 -11 3
-6 -6 2 -19 18 -18 21 -30 27 -43 22 -18 -6 -18 -6 1 15 10 12 13 19 6 15 -7
-4 -21 -2 -30 6 -16 12 -16 11 -2 -7 14 -19 14 -20 -6 -2 -11 9 -24 14 -28 10
-4 -5 -7 -3 -6 2 5 24 -1 34 -17 28 -11 -4 -14 -3 -9 5 4 7 2 12 -4 12 -6 0
-8 5 -4 13 5 7 0 6 -11 -3 -11 -9 -16 -10 -11 -2 4 7 1 12 -8 12 -9 0 -16 5
-16 11 0 5 -4 8 -9 5 -5 -3 -12 1 -15 9 -3 8 -9 15 -13 14 -21 -4 -33 4 -53
34 -12 17 -20 25 -17 16 3 -9 -1 -16 -8 -16 -7 0 -12 8 -10 18 2 12 -1 16 -10
13 -7 -3 -16 0 -21 7 -5 8 -3 10 6 4 9 -5 11 -4 6 4 -4 6 -12 9 -17 5 -5 -3
-17 3 -27 13 -9 11 -13 13 -8 6 5 -8 7 -16 4 -19 -3 -2 -13 10 -21 28 -9 18
-17 29 -17 24 0 -5 -7 -2 -16 5 -9 7 -25 15 -37 16 -12 2 -24 9 -29 15 -4 7
-10 9 -13 6 -4 -4 -18 5 -32 20 -14 15 -19 18 -12 8 13 -18 13 -18 -8 -6 -12
8 -19 18 -17 22 3 4 -2 8 -10 8 -9 0 -16 6 -16 13 0 9 -2 9 -9 -1 -7 -11 -9
-11 -14 2 -4 9 -16 16 -27 16 -11 0 -20 5 -20 10 0 6 -9 10 -20 10 -11 0 -20
5 -20 10 0 6 -8 10 -17 10 -9 0 -25 8 -36 18 -12 10 -17 11 -12 3 6 -10 4 -12
-4 -7 -7 5 -10 15 -7 23 3 8 1 11 -5 8 -5 -4 -17 -1 -25 6 -12 10 -13 9 -9 -7
4 -12 0 -9 -9 6 -8 14 -15 19 -16 12 0 -8 -8 -6 -22 8 -12 11 -28 20 -35 20
-7 0 -13 6 -13 13 0 8 -4 7 -10 -3 -8 -12 -10 -12 -10 5 0 15 -2 17 -9 6 -6
-10 -10 -10 -16 -1 -4 6 -13 9 -21 6 -7 -3 -20 5 -29 17 -10 15 -15 17 -15 7
-1 -11 -5 -9 -18 6 -10 11 -23 19 -30 16 -6 -2 -12 1 -12 7 0 6 -6 8 -13 5 -8
-3 -20 2 -27 11 -7 8 -23 15 -37 15 -15 0 -22 4 -17 11 5 8 1 8 -14 0 -15 -8
-23 -8 -28 1 -5 7 -3 8 6 3 8 -5 11 -4 6 3 -3 6 -15 9 -25 7 -11 -2 -22 3 -26
13 -4 12 -8 13 -14 4 -5 -9 -13 -7 -29 8 -12 12 -22 16 -22 10 0 -6 -5 -8 -10
-5 -6 4 -7 12 -3 18 4 8 1 7 -9 -1 -12 -10 -17 -10 -20 -1 -4 12 -25 18 -80
21 -15 1 -25 5 -22 10 3 4 2 8 -3 9 -4 0 -17 3 -28 5 -11 2 -28 5 -37 6 -10 1
-20 8 -23 16 -3 10 -10 10 -25 2 -16 -8 -22 -8 -26 4 -3 8 -14 13 -25 11 -10
-2 -19 0 -19 6 0 5 -5 9 -11 9 -5 0 -7 -4 -4 -10 3 -6 -1 -7 -9 -4 -9 3 -16 9
-16 13 0 4 -13 7 -30 6 -16 -1 -30 2 -30 6 0 4 -7 10 -16 13 -10 4 -13 2 -8
-7 4 -6 -1 -4 -12 5 -14 12 -24 14 -37 7 -13 -8 -19 -6 -23 5 -4 12 -11 13
-24 6 -13 -7 -19 -6 -23 4 -4 9 -14 12 -28 9 -17 -5 -20 -3 -14 8 8 12 6 12
-8 0 -11 -8 -17 -9 -17 -3 0 6 -7 9 -15 6 -8 -3 -27 1 -44 9 -16 8 -35 11 -42
6 -7 -4 -17 -5 -23 -2 -5 4 -26 8 -45 10 -57 5 -61 6 -61 15 0 5 -9 4 -19 -2
-13 -7 -22 -7 -26 0 -4 7 -13 7 -26 0 -13 -8 -19 -7 -19 0 0 6 -4 9 -9 5 -5
-3 -12 -1 -16 5 -3 5 -11 10 -16 10 -6 0 -7 -5 -3 -12 5 -7 3 -8 -7 -2 -19 12
-149 21 -149 11 0 -4 -5 -5 -11 -1 -7 4 -25 7 -40 6 -16 0 -32 4 -35 10 -5 7
-2 8 6 3 9 -5 11 -4 6 3 -4 7 -15 8 -29 3 -12 -5 -31 -5 -42 -1 -11 4 -25 3
-32 -2 -7 -6 -14 -5 -18 2 -5 8 -10 8 -20 0 -10 -8 -15 -8 -20 0 -5 8 -10 8
-20 0 -10 -8 -15 -8 -20 0 -5 8 -10 8 -20 0 -9 -7 -15 -8 -19 -1 -4 7 -15 7
-30 1 -13 -5 -26 -7 -29 -4 -9 10 -62 10 -74 1 -7 -5 -18 -5 -25 -1 -17 11
-37 11 -65 2 -13 -4 -23 -3 -25 4 -2 6 -11 4 -21 -6z m-57 -196 c14 4 35 3 47
-1 13 -5 25 -4 29 2 4 7 10 7 18 0 7 -6 15 -8 19 -5 6 7 216 7 260 1 15 -2 30
0 33 5 3 5 11 4 19 -2 7 -6 16 -7 18 -3 6 9 81 8 96 -2 5 -3 12 -1 16 5 4 6
12 7 18 3 7 -4 21 -6 33 -5 11 2 33 -2 50 -9 39 -16 64 -18 64 -5 0 6 4 6 12
-2 8 -8 17 -8 31 0 11 5 22 6 26 1 3 -5 13 -8 21 -8 8 1 27 -5 43 -12 15 -7
27 -9 27 -4 0 5 8 8 18 6 9 -2 17 -4 17 -5 0 -1 8 -3 18 -5 9 -2 17 1 17 7 0
6 6 5 15 -2 8 -7 15 -9 15 -4 0 5 5 2 10 -6 7 -11 10 -12 10 -2 0 10 4 9 16
-3 12 -12 19 -13 30 -4 8 6 14 7 14 2 0 -6 12 -8 27 -5 21 4 25 2 20 -11 -4
-11 -2 -14 8 -10 8 3 12 10 8 17 -4 6 1 5 10 -3 9 -7 17 -11 17 -7 0 4 12 -2
27 -11 15 -10 24 -13 20 -7 -4 7 10 7 45 -2 28 -8 55 -11 59 -8 5 3 9 -3 10
-13 0 -11 3 -13 6 -5 2 6 10 9 16 5 15 -9 32 -13 74 -16 18 -1 35 -9 38 -17 5
-13 7 -13 15 0 8 12 10 11 10 -5 0 -11 4 -15 8 -10 9 13 32 17 32 6 0 -5 7
-12 16 -15 10 -4 13 -2 8 7 -4 6 3 3 16 -8 13 -11 20 -14 16 -8 -5 9 -2 11 8
7 9 -3 16 -13 16 -21 0 -8 5 -11 10 -8 6 4 8 11 4 17 -3 5 8 3 24 -6 17 -9 34
-20 37 -26 4 -7 12 -7 25 0 13 7 21 7 26 -2 5 -7 3 -8 -6 -3 -8 5 -11 4 -6 -3
3 -6 15 -9 26 -7 11 2 20 0 20 -5 0 -4 7 -11 16 -14 10 -4 13 -2 8 7 -6 9 -5
9 8 0 8 -7 18 -10 21 -6 4 3 7 1 7 -6 0 -7 5 -9 10 -6 6 3 10 0 10 -7 0 -9 3
-9 10 2 5 8 10 10 10 3 0 -10 56 -38 73 -34 4 0 7 -5 7 -11 0 -9 3 -8 10 2 8
12 10 12 16 -3 3 -9 15 -17 25 -17 10 0 19 -4 19 -10 0 -5 6 -7 13 -4 7 2 30
-6 50 -20 28 -20 35 -21 31 -8 -3 9 2 6 10 -8 10 -16 16 -19 16 -10 0 12 3 11
11 -2 5 -10 17 -18 25 -18 8 0 32 -11 54 -25 22 -14 53 -27 68 -28 16 -2 38
-13 51 -26 12 -12 26 -19 31 -16 6 4 10 0 10 -8 0 -8 7 -17 15 -21 8 -3 15 0
15 7 0 6 7 2 15 -10 9 -12 22 -20 29 -17 7 3 16 -2 19 -10 4 -9 11 -16 17 -16
6 0 8 6 5 13 -4 6 3 0 15 -15 12 -16 27 -25 35 -21 8 3 15 0 15 -7 0 -9 3 -10
14 -1 11 9 13 6 9 -16 -3 -24 -2 -25 6 -8 5 11 10 14 10 7 1 -7 6 -10 13 -6 6
4 8 3 4 -4 -3 -6 -2 -13 4 -17 5 -3 10 -1 10 5 0 8 5 7 14 -2 8 -7 25 -21 40
-32 14 -10 23 -23 19 -29 -3 -5 -1 -7 5 -3 6 3 13 2 17 -4 3 -5 16 -15 28 -21
15 -7 12 -3 -8 15 -16 14 -26 25 -22 26 5 0 25 -16 45 -36 27 -27 37 -32 45
-22 7 10 8 9 4 -3 -3 -9 -1 -22 4 -30 7 -11 9 -11 9 -1 0 7 5 10 10 7 6 -4 8
-10 5 -15 -3 -4 2 -11 11 -14 8 -3 12 -2 9 4 -3 6 -4 10 0 10 3 0 10 -12 15
-26 9 -22 13 -24 25 -14 12 10 15 9 15 -3 0 -11 5 -14 18 -10 15 6 15 4 4 -9
-11 -14 -10 -16 6 -11 12 3 22 -2 26 -12 3 -9 10 -13 16 -10 9 6 15 -8 11 -29
-1 -5 5 -3 14 4 9 7 15 9 14 4 -4 -23 3 -34 22 -34 14 0 19 -5 16 -14 -4 -11
-1 -13 10 -9 12 5 14 3 8 -7 -6 -10 -3 -12 14 -7 18 4 21 2 17 -10 -5 -12 -1
-14 14 -10 11 3 18 2 15 -3 -7 -11 20 -31 30 -22 5 4 5 1 1 -6 -4 -7 -13 -10
-19 -6 -7 3 -4 -1 5 -9 10 -8 14 -18 10 -22 -4 -5 -1 -5 6 -1 7 4 9 13 5 19
-4 7 0 6 10 -2 9 -7 15 -17 12 -21 -3 -4 2 -10 9 -13 8 -3 17 -1 20 6 2 7 5 0
5 -15 1 -16 4 -27 9 -27 4 1 16 1 26 0 20 -1 20 -1 0 -16 -18 -14 -18 -14 4
-8 14 3 22 1 22 -8 0 -7 3 -9 6 -6 9 8 43 -30 55 -60 5 -14 17 -23 29 -23 12
0 18 -4 15 -10 -3 -5 -2 -10 3 -10 5 0 12 -9 15 -20 3 -10 21 -27 41 -36 19
-10 33 -20 31 -24 -2 -4 3 -16 11 -26 9 -10 13 -13 9 -6 -8 16 3 15 20 -2 8
-7 11 -16 8 -20 -4 -3 -1 -6 6 -6 9 0 11 -8 8 -22 -6 -22 -6 -22 8 -4 14 18
15 18 15 2 0 -11 4 -15 13 -10 7 5 6 0 -3 -11 -13 -17 -13 -18 0 -13 9 3 24 0
35 -8 14 -10 15 -14 4 -14 -8 -1 -2 -7 13 -16 15 -8 35 -28 43 -44 9 -17 20
-30 25 -30 6 0 10 -7 10 -15 0 -8 8 -15 18 -16 14 0 14 -2 -3 -9 -19 -8 -19
-9 -1 -9 21 -1 58 -39 51 -52 -3 -4 0 -11 6 -15 8 -5 9 -3 4 7 -8 12 -6 12 8
0 9 -7 17 -20 17 -27 0 -8 16 -30 35 -48 30 -30 32 -34 12 -30 -12 2 -6 -2 13
-10 26 -11 30 -15 15 -16 -16 -2 -17 -3 -3 -7 9 -2 20 -13 23 -24 4 -11 11
-17 16 -14 5 4 9 1 9 -4 0 -6 -5 -11 -12 -11 -17 0 -3 -11 19 -14 10 -2 17
-10 15 -20 -2 -10 4 -16 15 -17 16 0 16 -1 -2 -8 l-20 -8 20 -7 c11 -3 29 -19
40 -34 18 -25 18 -26 0 -12 -17 14 -17 14 -5 -7 8 -12 17 -20 22 -17 9 6 39
-51 31 -60 -4 -3 1 -6 10 -6 10 0 14 -5 11 -14 -3 -9 3 -20 15 -28 12 -7 21
-18 21 -25 0 -7 5 -13 11 -13 8 0 7 -6 -2 -17 -10 -11 -10 -14 -1 -9 7 4 12 1
12 -8 0 -9 4 -16 9 -16 5 0 17 -12 26 -27 18 -27 18 -28 -1 -13 -11 8 -9 5 4
-8 13 -12 24 -31 25 -42 1 -11 7 -18 13 -16 7 3 10 -2 7 -13 -3 -11 2 -21 11
-24 9 -4 13 -14 11 -27 -2 -11 1 -20 6 -20 6 0 7 -4 4 -10 -3 -5 1 -10 11 -10
14 0 15 -2 3 -17 -10 -11 -10 -14 -1 -9 7 4 12 2 12 -4 0 -6 4 -9 9 -6 5 4 7
-4 3 -16 -4 -16 -2 -19 8 -13 8 5 11 4 6 -3 -3 -6 1 -18 10 -26 12 -12 12 -16
2 -17 -10 0 -10 -2 0 -6 6 -2 10 -9 6 -14 -3 -5 0 -9 5 -9 6 0 11 -7 11 -15 0
-9 6 -18 14 -21 8 -3 12 -13 9 -25 -3 -11 0 -19 6 -19 7 0 9 -4 6 -10 -3 -5 0
-10 7 -10 11 0 10 -2 0 -9 -11 -6 -10 -10 3 -15 11 -4 15 -13 12 -26 -3 -11
-1 -18 3 -15 12 7 20 -8 22 -40 2 -15 8 -29 14 -32 7 -2 10 -13 7 -24 -3 -10
-1 -19 5 -19 5 0 13 -7 16 -16 3 -8 2 -12 -4 -9 -6 3 -10 2 -10 -2 0 -5 9 -14
19 -20 14 -9 19 -21 16 -43 -3 -18 0 -28 5 -25 6 4 11 0 12 -7 3 -29 4 -34 17
-57 8 -14 8 -21 2 -17 -7 5 -9 1 -5 -8 3 -9 10 -16 16 -16 5 0 6 -4 3 -10 -3
-5 0 -10 7 -10 9 0 9 -3 -2 -10 -11 -7 -11 -10 -2 -10 7 0 12 -8 10 -18 -2
-11 4 -27 12 -37 9 -11 10 -16 3 -11 -7 4 -13 2 -13 -3 0 -6 5 -11 11 -11 6 0
9 -7 5 -15 -3 -8 -1 -15 4 -15 6 0 10 -11 10 -25 0 -14 5 -25 11 -25 8 0 8 -5
-1 -15 -10 -12 -9 -16 2 -20 8 -3 13 -19 13 -38 0 -17 3 -36 6 -42 11 -16 38
-128 33 -136 -2 -4 0 -10 6 -14 7 -4 6 -13 -1 -27 -6 -12 -7 -18 -1 -14 13 8
21 -15 18 -47 -2 -16 3 -28 12 -32 11 -4 12 -8 3 -19 -9 -10 -8 -15 3 -19 11
-5 13 -13 6 -36 -4 -16 -7 -31 -5 -33 2 -2 6 -16 9 -31 2 -14 8 -32 12 -39 10
-16 11 -47 2 -74 -3 -11 -2 -27 2 -34 5 -8 5 -19 0 -25 -6 -8 -3 -19 9 -32 12
-13 16 -25 11 -33 -5 -8 -4 -22 1 -32 6 -12 6 -25 0 -36 -7 -13 -6 -23 1 -30
7 -7 8 -12 3 -12 -11 0 -12 -51 -1 -68 4 -7 3 -12 -3 -12 -6 0 -6 -11 1 -32 5
-18 10 -39 11 -45 0 -7 5 -13 10 -13 6 0 6 -5 -1 -12 -5 -7 -6 -22 -2 -33 4
-11 4 -29 0 -40 -4 -11 -4 -29 0 -40 4 -11 3 -35 -1 -55 -5 -22 -4 -36 2 -38
6 -3 3 -14 -6 -28 -9 -14 -13 -29 -10 -33 3 -5 1 -21 -5 -35 -7 -19 -6 -26 3
-27 9 0 9 -2 0 -6 -9 -3 -10 -10 -3 -24 6 -11 7 -19 1 -19 -5 0 -6 -14 -1 -34
4 -19 4 -40 -1 -47 -4 -7 -3 -19 3 -26 6 -8 6 -13 1 -13 -6 0 -9 -18 -8 -40 1
-21 -1 -37 -6 -35 -4 3 -9 -2 -13 -10 -3 -8 -1 -15 5 -15 6 0 7 -5 2 -12 -11
-18 -11 -30 -1 -50 5 -11 5 -18 -1 -18 -6 0 -8 -7 -5 -15 4 -8 1 -15 -6 -15
-9 0 -9 -4 1 -17 8 -9 9 -14 3 -10 -8 5 -13 -7 -16 -34 -2 -22 0 -43 4 -45 12
-8 -3 -34 -16 -27 -7 4 -7 2 1 -7 9 -10 8 -16 -3 -27 -11 -11 -12 -19 -4 -28
8 -10 8 -15 0 -20 -6 -4 -9 -13 -6 -21 3 -8 1 -14 -4 -14 -5 0 -7 -6 -4 -14 3
-8 1 -17 -4 -20 -5 -3 -7 -18 -4 -32 4 -21 2 -25 -9 -19 -12 7 -12 6 -1 -7 10
-13 10 -17 -4 -22 -13 -5 -14 -9 -5 -20 9 -11 9 -16 -1 -23 -7 -4 -14 -21 -16
-38 -5 -57 -6 -65 -14 -65 -4 0 -5 -7 -2 -15 4 -8 2 -15 -4 -15 -6 0 -8 -10
-4 -22 4 -16 2 -19 -9 -13 -12 8 -12 6 0 -8 7 -9 9 -17 3 -17 -10 0 -27 -47
-23 -67 1 -7 -2 -13 -7 -13 -9 0 -27 -80 -25 -108 1 -7 -4 -11 -11 -9 -8 3
-11 -5 -10 -25 1 -20 -2 -28 -10 -25 -8 3 -12 -3 -10 -16 1 -12 -6 -36 -16
-54 -10 -17 -17 -43 -16 -57 2 -14 -1 -23 -5 -20 -9 5 -13 -10 -9 -35 1 -8 -4
-12 -14 -8 -10 4 -13 1 -10 -7 3 -8 0 -17 -6 -21 -9 -6 -9 -10 1 -16 10 -6 11
-9 2 -9 -7 0 -13 -9 -13 -20 0 -11 -5 -20 -11 -20 -6 0 -8 -7 -5 -16 5 -12 2
-15 -10 -10 -13 5 -14 3 -6 -6 7 -9 6 -18 -4 -32 -7 -10 -11 -23 -8 -28 3 -4
-2 -11 -10 -14 -9 -3 -16 -15 -16 -26 0 -27 -19 -60 -30 -53 -6 4 -7 -1 -3
-11 4 -10 0 -22 -11 -30 -10 -7 -15 -18 -11 -23 3 -6 0 -14 -9 -17 -8 -3 -12
-12 -10 -19 7 -17 -25 -67 -37 -59 -5 3 -6 -3 -2 -12 3 -10 0 -22 -8 -28 -8
-6 -14 -18 -14 -26 0 -8 -5 -14 -12 -13 -8 2 -10 -4 -6 -14 5 -13 2 -15 -13
-9 -14 5 -16 4 -7 -4 8 -9 6 -17 -8 -31 -11 -11 -17 -24 -14 -29 4 -6 1 -10
-5 -10 -6 0 -8 -4 -5 -10 3 -5 -2 -10 -12 -10 -15 0 -16 -2 -3 -10 13 -8 12
-10 -2 -10 -11 0 -18 -8 -18 -20 0 -11 -9 -29 -19 -39 -14 -14 -16 -22 -8 -31
9 -8 8 -10 -6 -4 -13 5 -20 1 -24 -15 -3 -11 -9 -18 -14 -16 -4 3 -6 -3 -4
-15 2 -11 -1 -19 -8 -17 -7 1 -11 -4 -9 -10 1 -7 -3 -13 -9 -13 -6 0 -8 -7 -5
-16 3 -8 2 -12 -4 -9 -6 3 -10 2 -10 -4 0 -6 -8 -8 -17 -5 -14 5 -15 4 -4 -4
15 -11 5 -36 -11 -26 -6 4 -8 -1 -3 -15 4 -14 3 -21 -5 -19 -7 2 -14 -6 -16
-16 -1 -10 -8 -22 -14 -26 -7 -4 -12 -11 -13 -16 -1 -5 -8 -8 -14 -6 -8 2 -10
-3 -6 -14 4 -12 3 -15 -5 -10 -8 5 -12 0 -12 -13 0 -12 -5 -21 -11 -21 -5 0
-7 -6 -3 -13 5 -7 0 -6 -11 3 -11 9 -16 10 -11 2 4 -7 2 -12 -6 -13 -10 0 -10
-2 0 -6 6 -2 10 -9 7 -13 -3 -5 -11 -7 -18 -4 -8 3 -13 -4 -14 -17 -1 -12 -10
-29 -19 -38 -17 -15 -17 -15 -5 2 8 9 9 17 3 17 -13 0 -24 -29 -15 -43 4 -7 0
-8 -11 -4 -13 5 -17 3 -13 -7 7 -18 -12 -34 -35 -31 -15 3 -16 0 -7 -17 6 -11
7 -18 2 -15 -4 2 -17 -4 -27 -14 -18 -18 -18 -18 4 -14 12 2 19 1 16 -3 -7 -7
-11 -8 -37 -11 -5 0 -8 -5 -4 -10 3 -6 -4 -8 -16 -6 -18 4 -19 2 -8 -11 10
-12 10 -15 -2 -12 -8 2 -13 -3 -11 -11 2 -9 -3 -11 -13 -7 -11 4 -15 1 -13
-12 2 -11 -3 -16 -14 -14 -12 2 -16 -3 -13 -18 3 -18 1 -19 -17 -9 -15 8 -19
8 -14 0 4 -6 1 -11 -6 -11 -9 0 -9 -3 2 -10 12 -7 8 -11 -17 -16 -28 -5 -32
-10 -29 -30 4 -21 3 -23 -16 -13 -15 8 -19 8 -14 0 4 -6 1 -11 -6 -11 -9 0 -9
-3 2 -10 11 -7 11 -10 2 -10 -7 0 -10 -5 -6 -11 4 -7 -2 -6 -17 2 -22 11 -23
11 -11 -4 12 -14 11 -16 -7 -12 -18 3 -20 1 -11 -15 9 -16 7 -18 -10 -15 -15
3 -20 -1 -18 -13 2 -9 -3 -16 -9 -14 -7 1 -13 -5 -13 -13 0 -8 -6 -14 -12 -13
-7 2 -12 -3 -10 -11 3 -12 0 -12 -12 -2 -13 11 -15 10 -11 -7 3 -16 -1 -20
-16 -17 -16 3 -17 1 -9 -15 9 -16 7 -18 -11 -15 -15 3 -19 0 -15 -10 3 -9 -1
-15 -10 -15 -9 0 -12 5 -8 12 4 7 3 8 -5 4 -9 -6 -9 -11 -1 -21 8 -10 6 -13
-7 -11 -10 0 -17 -5 -15 -12 2 -10 -2 -10 -17 -3 -16 9 -19 8 -16 -7 3 -23
-13 -42 -31 -35 -10 4 -12 0 -7 -13 6 -17 5 -17 -10 -5 -15 12 -17 12 -12 -2
4 -8 1 -18 -6 -23 -8 -5 -10 -3 -4 6 5 9 4 11 -3 6 -7 -4 -12 -14 -12 -22 0
-8 -5 -14 -11 -14 -5 0 -7 5 -4 10 3 5 2 10 -3 10 -6 0 -13 -7 -16 -16 -3 -9
-11 -12 -18 -8 -8 5 -7 0 2 -11 9 -11 10 -16 3 -11 -7 4 -13 3 -13 -3 0 -6 -6
-8 -14 -5 -8 3 -16 -3 -19 -15 -4 -15 -10 -19 -23 -14 -13 5 -16 3 -11 -10 3
-9 1 -19 -5 -23 -7 -4 -8 -3 -4 4 4 7 2 12 -3 12 -6 0 -11 -5 -11 -10 0 -6
-11 -15 -25 -20 -14 -5 -24 -15 -23 -21 2 -6 -5 -13 -16 -14 -10 -2 -25 -13
-33 -24 -12 -18 -18 -19 -36 -9 -20 10 -21 10 -8 -5 12 -15 11 -17 -3 -17 -9
0 -16 -4 -16 -9 0 -5 -14 -14 -31 -20 -21 -7 -28 -15 -23 -23 6 -9 3 -9 -9 1
-15 12 -17 11 -17 -3 0 -9 -6 -16 -14 -16 -8 0 -17 -7 -20 -16 -5 -13 -9 -14
-21 -4 -13 10 -15 9 -16 -11 0 -13 -3 -18 -6 -11 -2 6 -9 12 -14 12 -4 0 -5
-7 -2 -17 4 -11 3 -14 -5 -9 -7 4 -12 2 -12 -4 0 -6 -4 -8 -10 -5 -5 3 -10 1
-10 -6 0 -9 -3 -9 -14 0 -11 10 -16 8 -21 -8 -6 -19 -21 -25 -61 -24 -6 0 -11
-6 -11 -13 0 -7 5 -10 11 -7 6 4 7 2 3 -3 -5 -5 -13 -10 -18 -10 -5 -1 -14 -2
-20 -3 -5 0 -7 -6 -4 -12 4 -6 1 -10 -6 -8 -28 3 -40 -1 -33 -13 4 -6 3 -8 -4
-4 -6 3 -13 2 -17 -4 -4 -6 -10 -8 -15 -5 -5 3 -15 -2 -23 -10 -12 -11 -17
-12 -20 -2 -3 7 -6 5 -6 -5 -1 -10 -5 -19 -11 -19 -5 -1 -14 -3 -20 -4 -5 -1
-15 -3 -21 -4 -5 0 -7 -6 -3 -13 4 -7 3 -8 -5 -4 -6 4 -19 0 -28 -9 -11 -12
-18 -13 -23 -5 -5 8 -9 7 -14 -5 -4 -11 -12 -14 -25 -10 -10 3 -24 -1 -31 -10
-7 -8 -21 -15 -31 -15 -11 0 -19 -5 -19 -11 0 -5 6 -7 13 -3 7 4 9 3 4 -2 -5
-5 -18 -9 -30 -9 -12 -1 -21 -7 -19 -14 2 -9 -2 -10 -15 -3 -11 7 -21 6 -30
-3 -7 -8 -22 -12 -33 -10 -11 2 -19 -1 -17 -8 1 -6 -7 -13 -18 -15 -11 -2 -23
-9 -27 -16 -6 -8 -8 -7 -8 2 0 6 -4 12 -10 12 -5 0 -10 -6 -10 -13 0 -8 -11
-13 -27 -13 -18 1 -27 -4 -25 -12 2 -10 -2 -10 -19 -1 -12 6 -19 7 -15 1 3 -5
-1 -12 -8 -15 -8 -3 -17 -1 -20 6 -2 7 -5 1 -5 -13 -1 -14 -5 -20 -9 -14 -9
13 -52 13 -52 -1 0 -5 -12 -11 -27 -12 -15 0 -29 -6 -31 -12 -3 -9 -8 -8 -20
1 -9 7 -13 8 -10 3 4 -6 -5 -15 -18 -22 -13 -6 -22 -7 -18 -2 3 5 0 9 -5 9 -6
0 -11 -5 -11 -11 0 -6 -7 -9 -15 -6 -8 4 -17 2 -20 -3 -3 -5 -13 -6 -22 -3 -9
4 -14 2 -11 -3 4 -5 -5 -10 -19 -11 -14 0 -29 -7 -34 -15 -7 -10 -9 -10 -9 2
0 12 -2 13 -9 1 -5 -7 -14 -10 -20 -7 -6 4 -11 2 -11 -4 0 -8 -6 -8 -20 0 -16
9 -20 8 -21 -7 0 -10 -3 -13 -5 -7 -5 13 -44 7 -44 -6 0 -5 -11 -7 -25 -5 -14
1 -25 -1 -25 -4 0 -4 -8 -7 -17 -8 -58 -3 -104 -12 -117 -22 -8 -7 -17 -8 -20
-3 -3 6 -33 2 -69 -8 -35 -10 -70 -14 -77 -10 -16 10 -51 0 -44 -12 4 -6 -3
-5 -15 1 -16 9 -21 9 -21 0 0 -7 -10 -9 -25 -7 -13 3 -26 0 -28 -6 -3 -8 -8
-7 -17 1 -9 8 -19 9 -32 2 -12 -6 -18 -6 -18 1 0 6 -6 7 -17 1 -38 -18 -83
-29 -83 -20 0 6 -6 7 -16 1 -9 -5 -32 -6 -50 -2 -21 5 -34 4 -34 -2 0 -7 -4
-7 -13 0 -7 6 -19 7 -26 3 -7 -5 -28 -5 -47 -1 -21 5 -34 4 -34 -2 0 -7 -4 -7
-13 0 -7 6 -19 7 -26 3 -7 -5 -28 -5 -47 -1 -21 5 -34 4 -34 -2 0 -7 -4 -7
-13 0 -7 6 -19 7 -26 3 -7 -5 -26 -7 -42 -5 -19 2 -32 -1 -35 -11 -4 -10 -12
-12 -29 -5 -15 6 -27 6 -30 -1 -4 -5 -12 -6 -18 -2 -20 12 -41 12 -56 0 -10
-8 -13 -8 -8 -1 4 7 0 14 -8 18 -8 3 -15 0 -15 -7 0 -7 -3 -8 -8 -2 -8 11 -9
11 -98 14 -44 1 -63 4 -58 12 4 8 0 8 -15 0 -17 -9 -22 -9 -26 1 -3 8 -20 13
-42 13 -20 -1 -53 4 -72 11 -24 8 -38 9 -42 2 -4 -7 -9 -7 -13 0 -4 6 -13 9
-21 5 -9 -3 -15 1 -15 8 0 12 -2 12 -9 1 -7 -11 -9 -11 -14 1 -4 10 -16 13
-42 10 -21 -2 -44 2 -53 9 -13 11 -14 11 -7 -2 7 -12 6 -13 -6 -4 -8 6 -21 12
-29 12 -44 2 -66 6 -77 15 -7 5 -13 6 -13 3 0 -4 -10 -1 -22 6 -13 7 -27 11
-32 10 -5 -2 -13 3 -17 10 -7 10 -9 10 -9 1 0 -9 -7 -10 -26 -3 -14 6 -30 8
-35 4 -5 -3 -9 -1 -9 4 0 6 -7 13 -16 16 -10 4 -13 2 -8 -7 6 -9 5 -9 -8 0 -8
7 -18 10 -21 6 -4 -3 -7 -1 -7 5 0 7 -5 12 -11 12 -5 0 -7 -5 -3 -11 3 -6 -5
-3 -19 6 -15 9 -31 14 -37 10 -5 -3 -10 -1 -10 5 0 7 -8 9 -20 5 -13 -4 -20
-2 -20 6 0 7 -3 10 -6 7 -3 -4 -21 0 -40 8 -19 8 -39 12 -43 9 -5 -3 -12 2
-15 11 -4 9 -9 14 -13 11 -3 -4 -13 -1 -21 6 -13 9 -14 9 -8 0 5 -9 2 -11 -8
-7 -9 3 -16 10 -16 15 0 4 -6 6 -13 3 -8 -3 -19 2 -26 10 -7 8 -21 12 -33 8
-14 -3 -19 -1 -14 6 3 6 1 14 -5 18 -7 4 -9 3 -5 -4 3 -6 2 -13 -4 -17 -5 -3
-10 -2 -10 4 0 9 -26 21 -43 20 -5 0 -15 8 -23 18 -7 10 -14 13 -14 7 0 -6 -7
-11 -15 -11 -8 0 -12 4 -9 9 5 7 -1 9 -21 8 -3 -1 -13 6 -21 15 -9 8 -24 15
-34 15 -10 0 -22 5 -25 10 -3 6 -15 10 -26 10 -10 0 -19 5 -19 10 0 6 -7 10
-15 10 -8 0 -15 5 -15 11 0 5 -4 7 -10 4 -5 -3 -10 -2 -10 4 0 6 -13 17 -30
26 -16 9 -30 13 -30 10 0 -4 -6 -3 -12 2 -7 4 -18 8 -24 9 -22 3 -114 61 -107
67 3 4 -6 7 -20 7 -15 0 -27 5 -27 11 0 6 -6 9 -14 6 -15 -6 -71 27 -71 42 0
5 -4 13 -9 18 -5 5 -6 3 -2 -4 4 -7 2 -13 -3 -13 -6 0 -11 5 -11 11 0 5 -4 7
-10 4 -6 -3 -10 3 -10 14 0 12 -5 21 -11 21 -5 0 -7 -5 -3 -12 4 -6 -3 -4 -17
5 -13 9 -31 17 -41 17 -10 0 -18 5 -18 10 0 6 -16 18 -35 27 -19 9 -35 20 -35
25 0 4 -5 8 -11 8 -5 0 -7 -6 -4 -12 4 -7 -3 -1 -15 15 -12 15 -26 24 -32 21
-5 -3 -18 2 -29 12 -19 17 -20 17 -14 -2 3 -10 0 -8 -7 6 -7 14 -20 25 -28 25
-8 0 -23 10 -33 22 -10 13 -25 23 -33 23 -9 0 -22 7 -30 15 -9 8 -13 15 -9 15
3 0 3 5 -1 11 -4 8 -9 7 -15 -2 -7 -11 -15 -7 -37 16 -15 17 -23 25 -19 19 4
-7 3 -15 -4 -20 -7 -4 -9 -3 -5 4 3 6 1 14 -5 17 -5 4 -8 13 -5 21 3 8 0 11
-8 8 -8 -3 -17 -1 -21 5 -3 6 -1 11 6 11 7 0 9 3 6 6 -4 4 -14 1 -23 -7 -16
-13 -16 -12 -4 11 12 22 12 24 -2 12 -13 -10 -18 -9 -29 5 -12 14 -12 16 0 8
10 -5 12 -4 7 4 -4 6 -11 9 -16 6 -11 -7 -41 5 -35 15 2 4 -3 16 -11 26 -9 10
-13 13 -9 6 8 -16 -3 -15 -20 2 -8 7 -11 16 -8 20 4 3 1 6 -6 6 -9 0 -11 8 -8
22 6 22 6 22 -8 4 -13 -17 -15 -18 -15 -3 0 9 -4 17 -9 17 -5 0 -11 9 -14 20
-3 12 -14 20 -27 20 -11 0 -18 5 -15 10 3 6 1 10 -5 10 -6 0 -8 5 -5 10 3 6 1
10 -5 10 -14 0 -40 25 -40 39 0 6 -4 11 -10 11 -5 0 -10 5 -10 11 0 5 5 7 12
3 7 -4 8 -3 4 4 -4 6 -13 9 -22 5 -8 -3 -14 -2 -13 3 1 5 1 16 0 24 -1 13 -2
13 -12 0 -9 -12 -10 -11 -6 7 4 20 3 21 -15 12 -15 -8 -19 -8 -14 0 4 6 0 14
-9 17 -13 6 -14 8 -3 15 10 7 9 9 -5 9 -10 0 -15 4 -12 10 3 5 -1 10 -9 10 -9
0 -16 3 -16 8 0 4 -14 15 -31 24 -19 11 -27 22 -23 30 5 8 2 9 -9 5 -9 -3 -16
-3 -16 1 3 21 -3 32 -18 33 -15 0 -15 2 2 9 17 7 16 9 -10 9 -23 1 -27 4 -15
11 12 8 12 10 -5 10 -21 0 -50 35 -41 49 3 4 -1 8 -9 8 -8 0 -11 -5 -8 -10 4
-6 1 -7 -6 -3 -7 5 -10 14 -7 22 4 10 -2 14 -20 14 -14 0 -23 4 -19 10 4 6 11
8 16 5 16 -11 10 1 -11 20 -20 18 -21 18 -15 -1 5 -14 3 -13 -7 4 -8 12 -17
19 -21 16 -4 -4 -7 3 -7 15 0 12 -4 19 -10 16 -5 -3 -10 0 -10 8 0 8 -6 17
-14 20 -8 3 -13 14 -12 24 2 10 -6 22 -17 28 -11 5 -22 17 -25 25 -3 10 0 9
10 -3 13 -18 14 -17 14 2 0 11 -4 18 -7 15 -4 -2 -14 5 -23 17 -8 13 -20 18
-28 14 -7 -3 -4 1 6 9 19 16 19 16 -2 16 -13 0 -22 6 -22 15 0 8 -8 19 -19 24
-10 6 -21 18 -25 28 -5 15 -4 15 9 -1 8 -11 15 -16 15 -10 0 5 -10 20 -21 34
-11 14 -17 18 -13 10 4 -8 3 -12 -2 -7 -4 4 -9 18 -9 30 0 13 -5 21 -13 19 -8
-1 -16 7 -19 18 -3 11 -13 20 -22 21 -12 0 -11 2 4 9 18 8 18 9 2 9 -11 1 -21
10 -24 21 -3 11 -10 17 -17 13 -7 -4 -6 -1 1 9 15 18 5 32 -13 17 -9 -7 -12
-3 -10 21 1 17 -2 34 -7 37 -6 4 -7 1 -2 -7 6 -9 4 -11 -4 -5 -7 4 -11 18 -9
30 4 16 1 22 -9 18 -7 -3 -13 2 -13 11 0 9 -5 16 -11 16 -8 0 -7 6 2 18 7 9
10 14 5 10 -10 -8 -36 14 -29 25 2 4 -3 7 -13 7 -14 0 -15 2 -3 17 10 11 10
14 2 9 -12 -6 -18 5 -14 27 0 4 -3 7 -8 7 -5 0 -11 7 -14 14 -4 11 -1 13 11 9
9 -4 4 5 -12 20 -16 15 -24 27 -18 27 6 0 0 12 -13 26 -14 15 -23 30 -20 34 3
4 -3 18 -13 31 -28 37 -69 133 -64 152 1 4 -5 10 -13 13 -21 8 -19 24 3 19 9
-3 5 1 -10 8 -23 11 -26 15 -15 26 7 9 7 11 1 8 -7 -4 -15 0 -18 9 -4 10 -2
13 7 9 6 -4 5 -1 -4 7 -9 7 -15 21 -13 30 1 10 -3 21 -8 25 -7 4 -8 1 -3 -8 5
-8 4 -10 0 -6 -10 8 -16 31 -19 64 0 11 -4 19 -7 17 -9 -5 -20 56 -12 69 3 6
1 7 -5 3 -7 -4 -12 -2 -12 4 0 6 -5 8 -12 4 -7 -5 -8 -3 -2 7 13 21 13 39 1
36 -7 -1 -11 7 -9 17 2 10 -1 22 -6 25 -6 3 -11 20 -13 36 -2 17 -10 38 -18
48 -13 15 -12 17 5 17 18 1 18 1 1 11 -9 6 -15 14 -12 20 4 5 2 9 -3 9 -6 0
-13 7 -16 16 -3 8 -2 12 4 9 6 -3 10 -1 10 5 0 6 -6 13 -14 16 -7 3 -12 16
-11 29 2 18 -1 22 -13 18 -10 -4 -13 -2 -8 6 4 6 2 19 -6 28 -11 14 -11 16 2
8 13 -8 13 -7 1 8 -11 14 -11 17 0 17 12 0 12 2 0 9 -10 7 -11 10 -1 16 10 6
9 11 -5 22 -13 9 -14 13 -5 13 9 0 8 5 -6 16 -10 8 -12 12 -4 8 12 -7 13 -5 3
8 -7 8 -10 18 -6 21 3 4 -1 7 -10 7 -9 0 -17 5 -17 11 0 5 5 7 11 3 6 -3 3 8
-6 26 -12 23 -13 30 -3 25 10 -6 10 -5 1 5 -7 8 -8 22 -3 41 5 16 5 27 0 24
-11 -7 -19 19 -21 70 -1 22 -7 48 -12 59 -7 14 -6 17 5 10 10 -6 10 -4 -1 9
-8 10 -11 20 -8 24 4 3 -1 12 -11 19 -12 10 -13 13 -3 14 9 0 10 4 3 13 -5 6
-10 55 -11 106 -1 52 -5 99 -7 103 -3 4 0 8 7 8 7 0 5 8 -7 22 -10 12 -13 18
-6 14 6 -4 12 -3 12 2 0 6 -7 12 -14 15 -11 5 -13 13 -7 34 4 15 5 37 1 48 -4
11 -4 34 1 52 4 18 3 35 -1 38 -5 3 -5 18 0 34 4 15 4 34 0 41 -4 6 -4 27 0
46 4 19 5 36 1 38 -6 4 -5 30 2 106 1 14 -1 30 -6 37 -5 7 -5 18 -1 25 12 18
12 31 2 45 -5 6 -5 14 2 18 6 3 7 11 3 18 -9 15 -10 57 -1 63 4 3 5 11 1 19
-3 8 0 15 7 15 9 0 9 4 -1 17 -10 11 -10 14 -2 9 12 -7 19 14 13 39 -7 30 4
140 18 176 8 19 7 30 -1 38 -8 8 -8 11 0 11 6 0 9 9 6 20 -3 12 0 20 7 20 9 0
10 3 2 13 -9 10 -8 19 3 35 10 13 12 23 5 27 -7 4 -7 12 0 25 5 10 10 30 10
45 0 14 4 24 8 21 5 -3 6 8 4 25 -3 18 0 29 7 29 9 0 9 5 0 21 -8 15 -8 19 0
15 11 -7 15 10 14 61 0 12 3 20 7 18 5 -3 10 2 14 10 3 8 0 15 -6 15 -9 0 -9
3 -1 11 6 6 9 18 6 26 -3 8 0 19 8 24 10 6 10 9 2 9 -7 0 -10 7 -7 15 4 8 9
13 13 11 3 -2 6 16 5 40 0 36 2 44 14 39 12 -5 13 -3 2 10 -11 13 -11 16 -1
13 13 -3 21 17 24 55 1 9 5 17 10 17 5 0 7 9 4 21 -3 12 0 22 9 26 10 4 11 9
5 17 -7 8 -3 17 14 30 19 14 22 22 15 36 -6 12 -6 20 0 22 10 3 21 37 23 71 1
9 4 17 8 17 13 0 18 44 6 53 -8 6 -6 7 6 3 12 -4 17 0 17 14 0 11 5 20 10 20
6 0 10 5 10 11 0 5 -6 7 -12 4 -7 -4 -3 2 10 14 13 11 18 22 12 26 -6 4 -5 11
3 19 6 8 15 12 18 10 4 -2 6 4 5 14 0 10 5 16 13 14 12 -3 12 -1 0 14 -8 10
-9 15 -3 11 13 -8 27 19 18 34 -3 5 -1 9 5 9 6 0 8 7 5 15 -4 8 -1 15 6 15 8
0 11 9 8 25 -3 13 -1 22 3 19 8 -5 13 10 10 29 0 4 3 7 9 7 5 0 7 7 4 15 -5
11 -2 13 12 8 13 -5 16 -3 11 10 -3 9 -2 17 4 17 6 0 7 5 4 10 -3 6 2 10 12
10 15 0 15 2 4 9 -12 8 -12 12 -2 25 7 8 9 21 5 27 -4 8 -3 9 4 5 7 -4 12 -1
12 8 0 15 12 21 34 17 5 -1 4 5 -4 13 -10 14 -10 16 5 16 12 0 16 6 12 20 -3
13 1 21 13 25 10 3 17 13 16 23 0 10 5 16 13 14 12 -3 12 0 1 12 -10 13 -10
16 4 16 10 0 14 5 11 10 -3 6 -2 10 4 10 6 0 8 7 5 15 -6 16 29 68 40 58 3 -3
6 3 6 15 0 12 5 22 11 22 5 0 7 5 4 10 -3 6 1 13 9 16 9 3 13 11 9 17 -4 7 0
8 12 3 14 -5 15 -4 7 7 -8 10 -5 17 13 31 14 11 25 23 25 29 0 5 -8 4 -17 -3
-10 -7 -4 1 14 17 25 23 29 33 20 42 -9 10 -8 11 5 6 13 -5 21 0 30 21 6 16
12 34 12 39 1 6 11 14 24 20 12 5 22 15 22 21 0 7 7 14 15 18 8 3 15 12 15 21
0 8 7 15 16 15 13 0 14 3 5 13 -8 11 -5 16 14 25 14 6 25 16 25 22 0 6 4 9 9
5 5 -3 12 -1 15 4 4 5 1 13 -5 17 -8 4 -9 3 -5 -4 4 -7 5 -12 2 -12 -14 0 -14
19 1 31 12 10 14 10 9 2 -4 -7 -5 -13 -1 -13 3 0 10 12 15 26 7 16 14 23 22
18 8 -5 7 0 -2 11 -9 11 -10 16 -2 11 11 -7 17 5 13 27 -1 5 3 6 8 2 6 -3 16
3 22 14 7 10 18 17 25 14 6 -2 15 1 20 8 4 8 3 10 -4 5 -7 -4 -12 -3 -12 2 0
5 9 12 21 15 13 4 18 10 13 18 -4 7 -3 10 4 5 12 -7 35 27 25 38 -3 3 1 6 10
6 9 0 19 4 22 10 4 6 -1 7 -12 3 -12 -4 -8 3 10 21 16 14 32 24 37 21 5 -3 11
-1 15 5 3 5 1 10 -5 10 -6 0 -8 5 -5 10 4 6 11 8 16 5 5 -4 9 -1 9 4 0 6 3 10
8 10 19 -3 25 2 12 11 -11 7 -11 10 -2 10 8 0 10 5 6 13 -6 9 -4 9 8 -1 13
-10 18 -10 24 -1 5 8 3 9 -7 4 -12 -8 -12 -6 0 8 7 9 18 14 23 11 5 -3 8 2 6
12 -2 13 2 18 14 16 13 -2 16 2 12 13 -4 10 -2 15 7 13 8 -2 15 7 17 21 3 19
6 21 13 10 6 -10 9 -10 9 -1 0 6 6 12 14 12 8 0 18 5 22 12 4 6 3 8 -3 5 -5
-3 -10 0 -10 8 0 8 8 12 20 10 13 -3 17 0 14 10 -3 7 1 16 9 19 9 3 12 1 9 -4
-3 -6 -1 -10 4 -10 6 0 11 10 11 23 1 21 2 21 14 4 12 -16 14 -16 20 -2 3 9 2
13 -4 10 -6 -3 -10 -4 -10 0 0 3 12 10 26 15 16 6 24 16 21 24 -7 18 49 59 72
53 10 -2 18 1 18 9 0 7 -5 10 -10 7 -6 -4 -7 -1 -3 6 5 7 14 10 22 7 10 -4 14
0 12 11 -2 10 3 18 10 19 6 1 17 2 23 3 5 0 7 6 3 13 -5 8 -2 9 9 5 15 -6 22
3 18 26 0 4 2 6 6 6 20 -3 34 2 28 11 -3 6 1 7 9 4 9 -4 18 0 22 9 3 9 14 14
26 12 15 -3 17 -1 9 9 -14 16 -4 27 17 19 11 -5 13 -3 7 7 -6 10 -3 12 13 8
12 -4 25 -1 29 4 3 7 1 8 -5 4 -7 -4 -12 -2 -12 3 0 6 5 11 11 11 5 0 7 6 3
13 -6 9 -5 9 8 -1 13 -10 18 -9 29 5 13 17 13 17 -6 3 -19 -14 -19 -14 -6 3 7
9 20 17 27 17 8 0 14 4 14 9 0 6 9 8 21 6 17 -4 19 -2 8 11 -10 12 -9 13 5 8
9 -4 16 -1 16 6 0 7 7 10 16 6 8 -3 12 -2 9 4 -3 6 -1 10 5 10 6 0 8 5 4 13
-5 8 -2 8 9 -2 15 -12 17 -11 17 3 0 9 11 18 28 21 35 8 58 21 55 33 -1 5 9
14 22 20 21 10 23 9 18 -6 -4 -13 -2 -12 10 3 8 11 13 24 9 30 -3 5 3 3 13 -5
10 -8 16 -10 12 -4 -8 13 19 28 44 25 9 -1 19 6 23 15 5 13 9 14 21 4 13 -11
20 -8 13 4 -7 10 38 47 53 43 12 -3 16 0 12 9 -4 10 0 12 11 8 9 -3 16 -1 16
4 0 6 10 12 23 14 12 2 21 9 19 16 -2 10 2 10 19 1 15 -8 19 -8 15 0 -4 6 0
11 9 11 9 0 14 4 11 9 -3 5 2 8 12 7 9 0 16 5 14 12 -2 10 2 10 19 1 12 -6 19
-7 15 -1 -3 5 2 16 11 23 10 8 14 9 10 2 -4 -6 -3 -14 3 -18 5 -3 10 1 10 9 0
8 9 20 20 26 15 8 20 8 20 -2 0 -7 5 -6 13 4 6 9 23 18 37 20 15 2 24 9 22 17
-2 11 0 12 11 2 12 -9 16 -8 21 4 3 9 10 13 16 10 5 -3 10 -2 10 4 0 5 11 8
25 7 13 -2 22 1 19 5 -3 5 -3 9 0 9 2 0 12 3 22 7 13 5 15 3 9 -8 -6 -10 -3
-9 11 2 10 9 27 15 36 14 11 -2 15 2 11 11 -3 9 1 14 12 14 10 0 13 5 9 12 -4
7 -3 8 4 4 6 -4 8 -14 5 -24 -5 -14 -3 -14 9 2 9 12 22 17 31 13 11 -4 14 -2
10 9 -4 10 0 12 11 8 10 -4 16 -1 16 7 0 11 3 11 10 -1 8 -12 10 -12 10 -1 0
10 3 11 14 2 11 -9 16 -9 22 0 4 8 3 9 -4 5 -7 -4 -12 -2 -12 5 0 7 10 9 25 7
14 -3 25 -1 25 4 0 6 7 8 15 4 8 -3 15 -1 15 5 0 6 5 7 10 4 6 -4 18 -1 26 6
8 6 17 9 21 6 3 -4 12 1 19 11 11 14 13 14 14 2 0 -12 2 -13 9 -1 5 8 28 14
54 15 29 1 42 5 37 11 -5 6 5 11 28 12 33 2 67 8 82 13 3 1 10 3 15 5 6 1 12
3 15 4 6 3 56 10 90 14 14 1 27 5 30 9 3 4 20 8 38 10 18 1 32 6 32 11 0 4 8
4 17 -2 13 -7 23 -5 37 7 11 9 16 12 13 5 -5 -8 0 -11 12 -10 11 0 18 4 15 8
-2 4 0 10 6 14 5 3 10 2 10 -3 0 -11 65 -5 89 7 9 5 40 8 69 8 28 -1 52 2 52
8 0 5 5 4 11 -2 9 -9 19 -8 42 3 16 9 26 11 23 6 -4 -6 2 -8 14 -5 11 3 17 10
14 15 -4 7 0 7 12 1 11 -6 30 -7 44 -3z m-2240 -560 c0 -5 -5 -10 -11 -10 -5
0 -7 5 -4 10 3 6 8 10 11 10 2 0 4 -4 4 -10z m4770 -30 c0 -5 -2 -10 -4 -10
-3 0 -8 5 -11 10 -3 6 -1 10 4 10 6 0 11 -4 11 -10z m-4540 -50 c0 -5 -5 -10
-11 -10 -5 0 -7 5 -4 10 3 6 8 10 11 10 2 0 4 -4 4 -10z m5135 -130 c3 -6 -1
-7 -9 -4 -18 7 -21 14 -7 14 6 0 13 -4 16 -10z m80 -70 c3 -5 1 -10 -4 -10 -6
0 -11 5 -11 10 0 6 2 10 4 10 3 0 8 -4 11 -10z m229 -456 c3 -8 2 -12 -4 -9
-6 3 -10 10 -10 16 0 14 7 11 14 -7z m-6900 -452 c3 -5 -1 -9 -9 -9 -8 0 -12
4 -9 9 3 4 7 8 9 8 2 0 6 -4 9 -8z m8186 -2232 c0 -5 -2 -10 -4 -10 -3 0 -8 5
-11 10 -3 6 -1 10 4 10 6 0 11 -4 11 -10z m-8129 -2913 c-10 -9 -11 -8 -5 6 3
10 9 15 12 12 3 -3 0 -11 -7 -18z m1114 -1157 c3 -6 -1 -7 -9 -4 -18 7 -21 14
-7 14 6 0 13 -4 16 -10z m140 -80 c3 -5 1 -10 -4 -10 -6 0 -11 5 -11 10 0 6 2
10 4 10 3 0 8 -4 11 -10z m4865 -245 c-7 -9 -15 -13 -19 -10 -3 3 1 10 9 15
21 14 24 12 10 -5z"/>
<path d="M4635 10900 c-3 -5 -1 -10 4 -10 6 0 11 5 11 10 0 6 -2 10 -4 10 -3
0 -8 -4 -11 -10z"/>
<path d="M4015 10500 c-3 -5 -1 -10 4 -10 6 0 11 5 11 10 0 6 -2 10 -4 10 -3
0 -8 -4 -11 -10z"/>
<path d="M3851 10379 c-13 -10 -19 -19 -15 -19 13 1 48 29 43 34 -2 2 -15 -4
-28 -15z"/>
<path d="M9736 10217 c3 -10 9 -15 12 -12 3 3 0 11 -7 18 -10 9 -11 8 -5 -6z"/>
<path d="M5996 10121 c-3 -5 -17 -7 -30 -6 -14 2 -27 -3 -30 -11 -3 -8 -12
-14 -20 -14 -8 0 -18 -5 -22 -12 -5 -7 -3 -8 5 -3 10 6 11 3 1 -14 -10 -19
-14 -20 -28 -9 -12 10 -14 10 -8 1 4 -8 2 -13 -4 -13 -6 0 -9 -4 -6 -9 3 -5
-1 -11 -9 -15 -8 -3 -15 -13 -15 -22 0 -20 -35 -66 -44 -57 -3 3 -6 -3 -6 -15
0 -12 -4 -22 -10 -22 -5 0 -7 -7 -4 -15 4 -8 1 -15 -5 -15 -6 0 -11 -11 -11
-24 0 -14 -5 -28 -11 -31 -6 -4 -8 -13 -5 -21 3 -8 2 -14 -2 -14 -4 0 -8 -12
-9 -27 0 -15 -6 -29 -12 -31 -8 -3 -8 -9 0 -24 6 -12 7 -18 1 -14 -13 8 -21
-35 -11 -62 5 -12 5 -22 1 -22 -10 0 -2 -123 8 -134 5 -5 5 -18 -1 -29 -7 -12
-7 -17 -1 -13 14 8 30 -15 27 -41 -1 -13 2 -23 7 -23 4 0 8 -8 8 -18 0 -10 6
-24 13 -31 10 -11 9 -13 -3 -7 -9 5 -8 2 3 -7 20 -16 23 -32 5 -21 -7 4 2 -7
20 -25 18 -17 30 -36 27 -41 -3 -6 1 -13 9 -16 9 -3 13 -10 10 -15 -3 -5 0 -9
5 -9 6 0 11 -7 11 -16 0 -9 5 -12 13 -8 7 5 6 0 -3 -11 -9 -11 -10 -16 -2 -11
7 4 12 2 12 -4 0 -6 5 -8 12 -4 8 5 9 2 5 -9 -5 -12 -1 -17 12 -17 20 0 35
-25 25 -43 -3 -7 2 -3 11 8 15 19 16 19 13 -5 -2 -17 4 -27 20 -36 17 -8 20
-13 10 -17 -9 -4 -10 -6 0 -6 6 -1 12 -6 12 -12 0 -7 8 -18 18 -26 9 -8 11
-11 3 -7 -11 5 -13 3 -8 -10 4 -10 7 -20 7 -22 0 -2 8 -4 18 -4 14 0 15 -2 2
-10 -12 -8 -12 -10 -1 -10 8 0 12 -3 8 -6 -3 -4 1 -13 9 -22 13 -12 13 -16 2
-23 -10 -7 -10 -9 1 -9 8 0 12 -3 8 -6 -3 -3 -2 -16 3 -28 4 -13 4 -29 0 -36
-5 -9 -4 -20 2 -27 7 -9 7 -13 0 -13 -6 0 -7 -13 -2 -34 4 -19 4 -40 0 -47 -5
-7 -4 -23 1 -36 6 -17 6 -22 -2 -17 -8 5 -10 -1 -7 -19 3 -15 1 -24 -3 -21 -5
3 -9 -6 -9 -20 0 -14 -5 -26 -11 -26 -8 0 -8 -4 0 -14 9 -11 8 -15 -5 -20 -10
-4 -14 -13 -11 -26 3 -13 0 -20 -10 -20 -8 0 -11 -4 -8 -10 5 -9 -6 -14 -26
-12 -3 1 -6 -6 -6 -13 0 -12 3 -12 16 -2 14 11 14 10 2 -6 -8 -10 -21 -15 -29
-12 -11 4 -12 2 -4 -8 13 -15 -2 -37 -24 -37 -7 0 -16 -4 -19 -10 -3 -6 2 -8
12 -5 10 3 6 -1 -9 -8 -23 -11 -26 -16 -15 -26 10 -11 8 -11 -13 -1 -22 12
-24 12 -12 -2 10 -13 10 -18 1 -24 -8 -4 -9 -3 -5 4 4 8 2 10 -8 6 -8 -3 -12
-12 -9 -20 3 -8 0 -14 -7 -14 -6 0 -8 -5 -5 -11 4 -6 10 -8 13 -5 3 3 11 1 19
-5 9 -8 13 -8 13 0 0 7 8 8 23 2 13 -5 29 -6 35 -2 6 3 27 6 46 5 25 -1 36 2
36 12 0 8 5 14 10 14 6 0 10 7 10 16 0 9 14 29 31 45 17 16 27 33 24 39 -4 7
2 14 15 17 13 3 19 11 16 19 -3 8 -1 14 5 14 6 0 7 5 4 10 -3 6 -1 10 5 10 6
0 9 4 6 9 -3 5 1 12 10 15 13 5 14 9 4 21 -11 13 -7 19 11 17 3 -1 6 5 6 13 0
8 -5 11 -11 8 -6 -3 -5 0 2 8 6 7 12 23 12 36 0 15 6 23 18 24 15 0 15 1 -2 8
-18 7 -18 8 -2 14 14 5 15 11 8 20 -6 7 -7 18 -2 27 4 7 5 23 0 35 -4 12 -4
29 1 38 6 11 6 17 1 17 -6 0 -7 14 -2 35 5 21 4 38 -2 41 -6 4 -5 10 3 15 11
7 11 9 -2 9 -11 0 -15 9 -14 30 1 17 -3 30 -9 30 -6 0 -4 5 4 10 13 9 13 10 0
10 -9 0 -16 10 -17 26 0 15 -7 30 -15 35 -10 7 -10 9 2 9 9 1 6 6 -10 16 -14
8 -17 13 -7 10 17 -5 17 -5 0 19 -10 13 -22 25 -28 25 -5 1 -1 5 10 10 17 7
17 9 3 9 -10 1 -18 6 -18 12 0 5 -6 7 -12 3 -8 -5 -7 0 2 11 14 17 13 18 -3
12 -13 -5 -17 -3 -14 5 2 7 -10 23 -27 36 -16 12 -26 22 -21 22 5 0 17 -8 29
-17 12 -12 9 -4 -8 20 -16 20 -35 37 -42 37 -8 0 -14 5 -14 11 0 5 -5 7 -12 3
-8 -5 -9 -2 -5 10 5 14 3 17 -8 12 -8 -3 -15 -1 -15 3 0 5 6 12 13 14 7 4 6 6
-4 6 -9 1 -23 9 -30 18 -10 11 -10 14 -1 9 6 -4 12 -2 12 4 0 6 -7 13 -15 16
-8 4 -15 13 -15 21 0 8 -5 11 -10 8 -7 -4 -9 3 -6 19 3 19 1 23 -10 19 -8 -3
-14 -2 -13 3 1 5 0 11 -1 14 -1 3 -3 23 -6 44 -2 22 -9 43 -16 48 -10 6 -9 8
2 8 9 0 11 3 5 8 -18 13 -19 28 -11 125 1 16 -1 30 -6 33 -4 3 -4 13 1 22 4 9
6 23 4 30 -3 6 1 12 9 12 10 0 9 3 -2 10 -8 5 -10 10 -4 10 10 0 15 11 29 63
2 4 4 10 5 15 1 4 2 10 1 15 0 4 3 7 8 7 5 0 8 8 7 18 0 9 4 16 11 15 7 -2 10
3 7 10 -2 7 6 25 20 40 13 14 21 29 17 33 -3 4 2 4 12 1 15 -6 16 -4 7 13 -9
16 -8 18 5 14 8 -4 15 -2 15 4 0 5 10 12 22 15 18 5 19 9 9 21 -11 13 -10 15
8 11 12 -2 19 0 16 4 -5 9 25 39 32 33 3 -2 8 0 11 4 4 4 2 4 -5 0 -16 -9 -28
13 -14 27 18 18 14 40 -6 28 -10 -5 -26 -5 -40 0 -12 4 -25 5 -27 0z m29 -951
c3 -6 -1 -7 -9 -4 -18 7 -21 14 -7 14 6 0 13 -4 16 -10z m-45 -136 c0 -8 -19
-13 -24 -6 -3 5 1 9 9 9 8 0 15 -2 15 -3z"/>
<path d="M6975 10122 c-27 -2 -56 -9 -64 -15 -9 -7 -12 -8 -8 -1 3 6 0 11 -8
11 -8 0 -11 -5 -8 -10 3 -6 -2 -16 -11 -23 -10 -7 -17 -16 -17 -21 0 -4 -7 -7
-14 -5 -9 2 -13 -4 -10 -18 3 -18 1 -19 -18 -8 -20 10 -21 10 -8 -5 11 -14 11
-17 0 -18 -8 -1 -18 -1 -24 1 -5 1 -5 -4 2 -11 10 -10 9 -15 -5 -26 -9 -8 -11
-11 -3 -7 9 5 12 3 7 -4 -4 -7 -14 -12 -22 -12 -8 0 -12 -4 -9 -10 3 -5 2 -10
-3 -10 -6 0 -8 -10 -4 -22 4 -17 2 -20 -11 -15 -11 4 -15 1 -12 -14 2 -10 0
-19 -6 -19 -5 0 -9 -11 -9 -25 0 -14 -5 -25 -11 -25 -5 0 -7 -4 -4 -10 3 -5 0
-10 -7 -10 -9 0 -9 -3 2 -10 10 -7 11 -10 2 -10 -8 0 -12 -14 -12 -37 1 -75 0
-83 -11 -83 -5 0 -8 -3 -6 -7 3 -5 1 -32 -3 -61 -3 -29 -3 -55 2 -59 17 -9 26
-48 16 -60 -6 -8 -7 -13 -1 -13 5 0 10 -6 11 -12 2 -32 14 -74 25 -87 9 -12 9
-13 0 -7 -7 4 -13 3 -13 -1 0 -5 9 -14 19 -20 13 -8 18 -20 16 -34 -3 -14 0
-19 9 -16 7 3 13 -1 13 -9 0 -8 -4 -14 -9 -14 -5 0 -6 -5 -3 -10 4 -6 10 -8
15 -5 12 7 52 -70 42 -80 -4 -5 -2 -5 5 -1 6 3 14 2 18 -4 4 -6 11 -8 16 -5 5
4 9 1 9 -4 0 -6 -6 -11 -12 -12 -7 0 -3 -5 9 -11 13 -6 25 -19 28 -29 3 -10
16 -19 27 -21 12 -2 23 -10 25 -18 4 -13 3 -13 -6 0 -6 8 -11 10 -11 5 0 -15
37 -44 46 -37 5 4 2 -2 -6 -12 -13 -18 -13 -19 2 -14 9 4 19 1 22 -7 3 -9 -1
-12 -12 -9 -9 2 -7 -1 6 -7 13 -7 21 -18 18 -26 -3 -7 -1 -13 5 -13 6 0 7 -4
4 -10 -3 -5 -2 -10 2 -10 5 0 9 -10 10 -22 1 -11 6 -24 10 -27 4 -3 8 -17 8
-31 0 -14 6 -33 14 -42 9 -12 10 -18 3 -18 -8 0 -9 -7 -3 -22 5 -13 5 -32 1
-43 -4 -11 -3 -25 2 -32 5 -7 5 -14 -2 -18 -6 -4 -7 -12 -1 -23 6 -12 5 -23
-4 -36 -8 -10 -11 -24 -9 -31 3 -7 1 -16 -5 -19 -6 -4 -8 -13 -4 -21 3 -8 0
-15 -6 -15 -6 0 -11 -5 -11 -11 0 -5 6 -7 13 -3 6 4 2 -4 -11 -18 -12 -14 -25
-35 -27 -48 -3 -13 -10 -27 -16 -31 -7 -4 -9 -15 -5 -24 5 -15 4 -16 -9 -5
-12 10 -15 10 -15 -3 0 -8 -9 -17 -21 -20 -12 -3 -19 -12 -17 -23 2 -9 -4 -19
-12 -21 -13 -4 -13 -3 0 7 13 10 13 11 0 7 -8 -2 -14 -11 -14 -20 1 -9 -2 -15
-5 -12 -6 3 -32 -39 -43 -73 -2 -4 9 -7 25 -8 15 -1 30 -4 33 -7 3 -3 18 -2
34 3 18 5 32 4 39 -3 8 -8 11 -8 11 1 0 7 9 12 20 12 18 0 26 17 21 44 -1 5 6
3 15 -5 16 -12 17 -12 11 3 -3 9 -1 18 4 20 5 2 11 13 11 24 1 12 9 21 17 20
9 -1 16 6 16 14 1 8 7 14 13 12 10 -2 10 3 1 19 -6 12 -7 19 -2 16 4 -3 14 1
21 9 10 11 10 14 0 14 -7 0 -2 7 10 16 14 10 21 22 17 31 -3 9 0 22 6 29 6 8
9 20 5 29 -3 8 0 14 6 12 7 -1 11 17 12 50 0 34 4 49 11 43 7 -6 8 22 5 87 -3
52 -1 101 3 109 5 9 3 14 -5 14 -9 0 -9 3 -1 11 14 14 6 39 -13 39 -8 0 -11 6
-8 15 4 9 -4 23 -17 35 -20 16 -22 21 -9 29 12 9 12 11 -2 16 -10 4 -15 16
-14 30 2 18 -1 22 -13 17 -14 -5 -14 -4 -1 14 8 10 10 16 6 12 -5 -4 -17 2
-27 14 -22 25 -24 34 -6 22 7 -5 1 2 -13 15 -14 13 -19 20 -11 16 10 -6 12 -4
7 4 -5 7 -14 10 -22 7 -9 -3 -11 0 -7 11 4 10 2 14 -4 10 -6 -4 -14 0 -17 9
-3 8 -2 13 2 10 5 -3 9 1 9 8 0 8 -8 11 -18 9 -11 -3 -19 3 -24 16 -3 12 -13
21 -20 21 -8 0 -17 5 -21 12 -4 6 -3 8 3 5 5 -3 10 0 10 8 0 8 -4 12 -9 9 -4
-3 -14 -2 -20 3 -7 4 -16 8 -20 8 -5 0 -8 5 -7 10 0 6 8 9 17 7 10 -1 5 5 -10
15 -16 10 -28 22 -28 27 0 5 -8 18 -17 29 -10 11 -12 17 -5 13 18 -10 15 10
-5 29 -14 14 -19 32 -25 93 -1 6 -6 12 -12 12 -7 0 -7 3 -1 8 13 9 18 35 5 27
-5 -3 -10 -3 -11 2 -4 45 -3 65 4 70 4 2 3 11 -3 18 -7 9 -8 15 -1 19 6 4 8
13 4 21 -3 8 0 15 7 15 9 0 9 4 -1 17 -10 11 -10 14 -1 9 11 -7 16 10 15 52
-1 6 3 12 8 12 5 0 6 7 3 15 -4 8 -1 15 4 15 6 0 12 12 14 28 2 15 8 26 14 25
6 -1 11 4 11 12 0 8 -5 12 -11 9 -6 -3 -1 3 12 14 12 11 22 25 22 32 0 6 5 8
12 4 7 -4 8 -3 4 5 -9 15 31 81 50 81 8 0 13 5 12 12 -3 11 1 13 33 17 8 1 7
7 -2 18 -10 12 -10 14 -1 9 7 -4 15 0 19 11 4 10 10 20 14 23 4 3 2 12 -4 20
-9 11 -27 14 -62 12z"/>
<path d="M7844 10101 c1 -9 -5 -15 -12 -13 -7 1 -12 -5 -10 -15 2 -10 -2 -17
-10 -15 -7 1 -17 -9 -22 -23 -5 -14 -14 -25 -20 -25 -5 0 -10 -5 -10 -11 0 -5
5 -7 10 -4 16 10 11 -1 -7 -16 -11 -10 -14 -10 -9 -1 4 7 2 12 -5 12 -6 0 -9
-8 -6 -20 3 -13 0 -20 -9 -20 -8 0 -13 -6 -11 -12 1 -7 -4 -12 -12 -10 -12 3
-12 1 0 -14 9 -12 9 -15 2 -10 -8 4 -13 2 -13 -4 0 -6 -5 -8 -12 -4 -9 5 -9 2
1 -9 7 -9 9 -17 5 -17 -5 0 -15 -9 -22 -21 -8 -12 -9 -18 -4 -15 11 7 10 -19
-1 -30 -4 -4 -7 -16 -7 -26 0 -11 -4 -17 -8 -14 -5 3 -8 -8 -7 -24 1 -17 -1
-30 -5 -30 -8 0 -5 -63 4 -78 4 -7 4 -18 -1 -24 -11 -19 -12 -37 -2 -44 6 -4
6 -11 -1 -19 -7 -9 -8 -15 -1 -19 7 -5 7 -15 1 -31 -7 -18 -6 -25 3 -25 8 0 7
-4 -3 -10 -8 -5 -10 -10 -4 -10 6 0 11 -7 12 -15 1 -8 3 -22 4 -30 1 -8 6 -15
11 -15 6 0 7 -3 4 -7 -4 -3 -1 -13 6 -21 10 -13 9 -14 -1 -8 -11 7 -12 4 -3
-12 6 -12 16 -24 22 -28 8 -5 8 -9 0 -14 -9 -5 -7 -11 5 -21 16 -12 17 -12 9
1 -4 8 -4 12 0 7 16 -14 14 -36 -3 -30 -10 2 -5 -4 11 -14 17 -11 25 -23 22
-33 -4 -8 -3 -11 1 -8 3 4 13 0 22 -8 13 -14 13 -17 1 -25 -11 -8 -10 -9 6 -7
14 2 21 -3 23 -20 3 -16 8 -22 19 -18 11 5 13 2 9 -9 -3 -9 -2 -13 4 -10 5 3
19 -9 30 -27 11 -18 20 -27 20 -19 0 11 4 9 14 -4 8 -11 11 -26 8 -35 -3 -8
-2 -12 3 -8 10 10 36 -18 38 -41 0 -11 4 -18 8 -15 4 2 10 -3 13 -12 4 -10 2
-13 -7 -9 -6 4 -1 -3 13 -15 14 -12 19 -19 13 -15 -7 3 -13 1 -13 -4 0 -6 5
-11 11 -11 6 0 9 -7 5 -15 -3 -8 -2 -15 3 -15 4 0 7 -14 6 -30 -1 -18 4 -34
13 -39 11 -6 11 -10 3 -16 -9 -5 -9 -10 -1 -20 8 -9 8 -15 0 -20 -7 -4 -7 -12
0 -26 6 -10 7 -19 3 -19 -10 0 -10 -41 0 -56 3 -5 2 -16 -3 -24 -4 -7 -6 -19
-3 -27 3 -7 0 -13 -7 -13 -10 0 -9 -4 0 -16 11 -12 11 -15 -1 -12 -9 2 -13 -4
-11 -14 2 -10 -3 -18 -10 -18 -9 0 -9 -3 2 -10 8 -5 10 -10 4 -10 -7 0 -14 -9
-17 -21 -4 -13 -10 -18 -18 -13 -8 4 -10 3 -5 -5 4 -6 12 -8 18 -5 6 4 5 -2
-2 -15 -6 -13 -16 -19 -23 -14 -7 4 -5 -2 3 -12 8 -10 10 -16 4 -12 -6 3 -16
-5 -22 -18 -7 -14 -16 -25 -22 -25 -6 0 -8 -5 -4 -12 5 -8 2 -9 -10 -5 -14 5
-15 3 -6 -12 7 -15 6 -18 -8 -17 -10 0 -16 -5 -14 -13 3 -12 1 -12 -14 0 -12
9 -15 9 -10 2 4 -7 3 -13 -3 -13 -6 0 -7 -7 -4 -17 4 -10 2 -14 -5 -9 -12 7
-17 1 -25 -34 -5 -21 -3 -26 13 -26 11 0 20 5 20 10 0 6 5 5 11 -1 7 -7 21 -8
39 -3 18 5 32 4 39 -3 8 -8 11 -8 11 1 0 7 9 12 20 12 11 0 20 5 20 11 0 5 -4
7 -10 4 -5 -3 -10 -4 -10 -1 0 3 10 10 21 17 17 9 20 8 14 -2 -5 -8 -4 -10 3
-5 7 4 12 13 12 20 0 7 10 18 23 25 l22 11 -24 -6 -24 -6 27 28 c14 16 26 32
26 37 0 4 5 5 10 2 6 -3 10 3 10 14 0 12 4 21 10 21 5 0 7 6 4 14 -3 8 0 17 5
21 6 3 8 11 5 17 -4 6 -2 8 3 5 12 -8 26 20 17 34 -3 5 -1 9 5 9 6 0 8 7 5 15
-4 8 -2 15 4 15 5 0 7 11 4 25 -2 15 0 25 7 25 7 0 9 -5 5 -12 -4 -7 -3 -8 5
-4 9 6 9 11 1 21 -8 10 -8 19 0 34 7 15 7 21 0 21 -7 0 -8 6 -1 18 7 13 6 23
-1 30 -8 8 -9 12 -1 12 7 0 8 11 3 34 -4 18 -3 41 2 50 6 11 4 21 -6 32 -18
17 -21 28 -6 19 6 -3 10 -1 10 4 0 6 -4 11 -9 11 -6 0 -8 9 -6 19 2 11 -3 22
-11 25 -12 4 -12 10 -4 26 9 16 8 22 -5 26 -13 5 -13 9 -3 22 10 12 10 14 1 8
-8 -4 -13 -2 -13 5 0 6 -8 18 -17 26 -11 8 -12 11 -3 7 12 -7 13 -5 3 8 -7 8
-10 18 -6 21 3 4 1 7 -6 7 -7 0 -10 4 -7 9 3 5 -4 11 -16 14 -19 5 -20 8 -7
23 9 12 10 15 2 10 -8 -4 -13 -1 -13 8 0 9 -8 16 -17 16 -15 0 -16 2 -3 10 10
6 11 10 3 10 -7 0 -13 7 -13 16 0 8 -4 13 -9 9 -5 -3 -12 4 -16 15 -3 11 -13
20 -21 20 -9 0 -12 5 -8 12 5 8 2 9 -9 5 -10 -3 -17 -3 -17 2 0 5 -12 21 -27
36 -16 16 -21 25 -13 21 8 -4 6 0 -4 8 -11 9 -17 19 -13 22 10 10 -14 35 -26
27 -6 -4 -8 2 -5 15 4 12 2 20 -3 16 -9 -5 -12 4 -12 38 0 9 -2 17 -6 16 -19
-2 -22 4 -10 19 12 14 12 16 0 8 -11 -6 -13 -1 -9 24 2 17 2 31 -2 31 -5 0 -9
18 -12 58 -1 6 -4 12 -7 12 -9 0 -3 80 7 93 4 7 9 28 11 47 2 19 7 37 12 38 5
2 9 8 9 13 0 6 -4 7 -10 4 -19 -12 -10 11 10 25 15 11 17 17 7 29 -7 8 -7 12
-2 9 6 -4 17 2 24 14 10 16 10 18 0 12 -9 -5 -10 -2 -6 10 4 10 7 20 7 22 0 2
7 4 15 4 8 0 16 6 17 13 0 6 2 17 3 22 2 6 3 14 4 19 0 5 8 2 18 -5 15 -13 15
-12 3 11 -12 23 -12 24 3 11 15 -12 17 -11 17 3 0 11 5 14 12 10 7 -5 9 -2 5
8 -7 19 11 38 29 31 10 -4 12 0 7 13 -4 12 -3 15 5 10 11 -7 18 21 13 48 -1 5
4 4 12 -2 12 -10 14 -8 13 10 0 13 -5 26 -9 29 -16 12 -110 9 -125 -3 -9 -7
-13 -8 -9 -2 3 6 0 11 -7 11 -7 0 -13 -7 -12 -16z"/>
<path d="M7936 9992 c-3 -5 1 -9 9 -9 8 0 12 4 9 9 -3 4 -7 8 -9 8 -2 0 -6 -4
-9 -8z"/>
<path d="M5800 9968 c-12 -22 -12 -22 6 -6 10 10 15 20 12 24 -4 3 -12 -5 -18
-18z"/>
<path d="M6941 9967 c-13 -21 -12 -21 5 -5 10 10 16 20 13 22 -3 3 -11 -5 -18
-17z"/>
<path d="M3324 9848 l-19 -23 23 19 c21 18 27 26 19 26 -2 0 -12 -10 -23 -22z"/>
<path d="M3105 9580 c-3 -5 -2 -10 4 -10 5 0 13 5 16 10 3 6 2 10 -4 10 -5 0
-13 -4 -16 -10z"/>
<path d="M2910 9275 c-7 -9 -8 -15 -2 -15 5 0 12 7 16 15 3 8 4 15 2 15 -2 0
-9 -7 -16 -15z"/>
<path d="M5790 9225 c0 -8 4 -15 10 -15 5 0 7 7 4 15 -4 8 -8 15 -10 15 -2 0
-4 -7 -4 -15z"/>
<path d="M8030 8315 c-7 -9 -8 -15 -2 -15 5 0 12 7 16 15 3 8 4 15 2 15 -2 0
-9 -7 -16 -15z"/>
<path d="M6062 8270 c-9 -15 -9 -21 1 -26 6 -4 9 -4 5 1 -4 4 -3 14 4 22 6 7
9 15 7 18 -3 2 -10 -4 -17 -15z"/>
<path d="M6825 8269 c-4 -6 -5 -12 -2 -15 2 -3 7 2 10 11 7 17 1 20 -8 4z"/>
<path d="M5010 7820 c0 -5 -5 -9 -12 -7 -15 3 -27 -43 -17 -64 4 -8 4 -21 -1
-29 -5 -9 -5 -19 2 -27 6 -7 7 -13 2 -13 -5 0 -7 -43 -4 -96 3 -53 2 -101 -2
-107 -4 -6 -2 -17 4 -24 6 -7 7 -13 2 -13 -5 0 -8 -25 -7 -55 0 -30 -3 -55 -8
-55 -5 0 -8 -5 -7 -11 2 -6 -5 -13 -14 -14 -10 -2 -18 2 -18 8 0 6 -7 2 -16
-9 -8 -10 -13 -13 -9 -6 3 6 1 12 -5 12 -6 0 -9 3 -7 8 3 4 -30 7 -74 7 -43 0
-79 -4 -79 -9 0 -5 -6 -4 -13 2 -7 6 -19 7 -26 3 -7 -5 -28 -5 -47 -1 -19 4
-34 4 -34 0 0 -5 -13 -5 -30 0 -19 5 -30 5 -30 -1 0 -6 -6 -7 -16 -1 -22 12
-56 3 -47 -12 4 -6 -1 -5 -10 3 -9 7 -17 9 -17 3 0 -5 -20 -15 -44 -21 -25 -6
-48 -15 -51 -21 -3 -5 -12 -10 -18 -10 -7 0 -6 4 3 10 9 6 10 10 3 10 -6 0
-18 -6 -25 -13 -7 -8 -19 -12 -27 -9 -9 3 -11 0 -6 -8 5 -9 2 -10 -13 -6 -13
4 -22 1 -26 -9 -3 -8 -13 -15 -21 -15 -10 0 -13 -5 -9 -12 5 -9 2 -9 -9 1 -11
9 -17 10 -17 2 0 -6 -7 -11 -15 -11 -8 0 -15 -8 -16 -17 0 -12 -2 -13 -6 -5
-3 9 -19 -1 -46 -30 -22 -24 -35 -36 -29 -27 9 12 9 16 -1 16 -8 0 -14 -6 -15
-14 -1 -7 -3 -20 -4 -28 -1 -8 -5 -12 -10 -9 -5 3 -6 10 -3 15 4 5 1 9 -4 9
-6 0 -11 -8 -11 -19 0 -11 -9 -21 -21 -24 -14 -4 -20 -11 -16 -21 3 -8 -1 -20
-9 -26 -9 -8 -14 -9 -14 -2 0 6 6 13 13 15 9 4 9 6 -1 6 -14 1 -33 -39 -24
-53 3 -5 0 -6 -6 -2 -6 3 -17 -3 -25 -14 -7 -11 -17 -17 -20 -14 -4 4 -11 -5
-17 -20 -5 -15 -14 -25 -19 -21 -5 3 -13 0 -17 -6 -5 -8 -3 -9 6 -4 8 5 11 3
8 -6 -3 -8 -11 -13 -18 -11 -10 2 -10 -1 1 -14 8 -10 9 -15 3 -11 -7 4 -18 -1
-25 -10 -8 -9 -9 -14 -3 -10 6 3 11 0 11 -8 0 -8 -4 -12 -8 -9 -4 2 -10 0 -14
-6 -4 -6 -11 -7 -17 -4 -7 4 -8 2 -4 -5 4 -6 12 -8 18 -5 6 4 6 -2 -1 -15 -7
-11 -17 -21 -23 -21 -7 0 -6 -5 2 -15 11 -13 10 -14 -4 -9 -14 5 -16 2 -12
-20 3 -18 0 -29 -9 -32 -17 -7 -30 -41 -26 -68 1 -10 -1 -16 -6 -13 -4 3 -9
-16 -11 -41 -1 -25 -6 -50 -11 -56 -14 -19 -20 -57 -8 -49 8 5 8 2 0 -8 -9
-12 -10 -18 -1 -27 8 -8 8 -15 1 -24 -6 -7 -7 -22 -3 -33 4 -11 5 -27 1 -35
-8 -19 -7 -42 2 -57 5 -7 5 -13 1 -13 -3 0 0 -8 7 -17 10 -11 10 -14 2 -9 -7
4 -13 2 -13 -3 0 -6 4 -11 9 -11 4 0 8 -15 8 -34 -1 -19 6 -42 14 -52 8 -11 9
-15 2 -10 -9 5 -11 2 -7 -8 3 -9 10 -16 15 -16 11 0 7 -23 -6 -32 -6 -4 -2 -8
8 -8 10 0 16 -4 13 -9 -7 -10 16 -61 27 -61 4 0 3 -10 -4 -21 -8 -15 -8 -19 0
-15 6 4 11 2 11 -4 0 -6 5 -8 13 -4 8 5 8 2 -2 -9 -12 -15 -11 -17 3 -17 9 0
16 -5 16 -11 0 -5 -6 -7 -12 -4 -7 4 -5 0 5 -8 9 -8 17 -20 17 -26 0 -7 5 -9
13 -5 9 6 9 5 0 -8 -15 -17 -7 -29 13 -21 9 3 14 -2 14 -16 0 -12 5 -21 10
-21 6 0 10 -9 10 -21 0 -11 5 -17 10 -14 6 3 10 -1 10 -10 0 -9 5 -13 10 -10
6 3 10 -3 10 -15 0 -12 5 -18 10 -15 6 3 10 1 10 -5 0 -6 4 -9 9 -6 5 3 12 -5
15 -19 4 -17 13 -25 29 -25 18 0 19 -2 7 -10 -13 -9 -13 -10 0 -11 8 -1 19 -1
23 0 5 1 6 -2 4 -6 -2 -5 7 -19 21 -33 16 -16 20 -18 11 -5 -13 19 -13 19 5 5
10 -8 22 -23 26 -35 8 -18 9 -18 10 5 l1 25 10 -23 c5 -13 13 -20 19 -17 5 3
10 -1 10 -10 0 -9 3 -14 8 -12 10 7 32 -19 24 -29 -4 -5 1 -2 11 5 11 9 17 10
17 2 0 -6 7 -11 16 -11 9 0 12 -5 8 -11 -5 -8 1 -10 20 -7 14 3 29 1 33 -5 4
-6 1 -7 -8 -2 -12 8 -12 6 0 -8 9 -12 17 -14 25 -7 8 6 17 3 29 -10 18 -22 43
-28 31 -7 -5 8 -2 8 9 -2 9 -7 17 -10 17 -5 0 5 5 1 11 -10 9 -15 13 -16 20
-5 7 11 9 11 9 1 0 -7 5 -10 10 -7 6 3 10 1 10 -6 0 -8 4 -8 15 1 11 9 15 9
15 1 0 -7 4 -10 8 -7 5 3 20 -1 34 -8 16 -9 31 -10 42 -4 10 6 16 5 16 -2 0
-7 6 -8 16 -2 9 5 32 6 50 2 21 -5 34 -4 34 2 0 7 5 6 13 -1 8 -6 16 -8 20 -5
3 3 34 8 69 10 98 7 108 9 108 15 0 6 39 16 78 21 6 1 12 5 12 10 0 5 4 6 10
3 5 -3 20 1 33 10 14 9 35 18 48 20 13 3 25 9 27 15 2 5 12 10 23 10 11 0 22
7 25 15 4 8 10 15 16 15 5 0 6 -5 2 -12 -4 -7 -3 -8 5 -4 6 4 9 12 6 17 -4 5
1 9 10 9 9 0 14 4 10 9 -3 6 4 9 15 8 11 -1 20 -5 20 -10 0 -5 8 -3 17 4 11
10 14 10 9 2 -4 -7 -2 -13 3 -13 6 0 11 -7 11 -15 0 -9 7 -18 15 -21 8 -4 15
-10 15 -16 0 -5 -5 -6 -12 -2 -7 4 -8 3 -4 -5 4 -6 11 -9 16 -6 4 3 21 -10 36
-27 15 -18 31 -32 35 -31 5 2 5 -5 2 -14 -4 -11 -3 -14 5 -9 7 4 12 2 12 -4 0
-6 5 -8 10 -5 6 3 10 -1 10 -9 0 -9 5 -16 10 -16 6 0 10 -10 11 -22 0 -21 1
-21 8 -4 6 16 10 14 24 -17 10 -20 23 -39 29 -43 7 -4 8 -3 4 4 -4 7 -4 12 -1
12 3 0 12 -15 20 -32 9 -20 14 -26 15 -15 0 10 4 16 10 12 5 -3 6 -13 3 -23
-3 -9 -3 -14 2 -10 12 11 45 -11 46 -30 0 -14 2 -14 9 3 7 17 9 17 9 3 1 -10
8 -18 16 -18 8 0 15 -4 15 -10 0 -5 6 -10 14 -10 8 0 17 -7 20 -16 3 -9 12
-14 18 -12 7 3 23 -6 37 -18 13 -12 30 -20 37 -17 8 3 14 0 14 -6 0 -6 7 -11
16 -11 9 0 12 -5 8 -12 -5 -8 0 -7 11 2 15 12 17 12 10 1 -6 -11 -3 -13 13 -9
12 4 25 1 29 -4 4 -7 1 -8 -8 -3 -10 6 -11 5 -3 -4 6 -7 21 -13 33 -14 21 -1
28 -11 14 -20 -5 -2 -2 -2 6 0 7 2 21 -2 29 -9 13 -11 14 -11 7 2 -8 13 -6 13
8 1 9 -7 24 -11 32 -7 9 3 13 2 10 -4 -3 -6 3 -10 15 -10 12 0 19 -4 16 -9 -4
-5 4 -7 15 -4 14 4 25 0 30 -9 5 -9 19 -14 34 -13 14 2 25 -1 25 -7 0 -7 5 -6
14 1 11 9 15 8 20 -6 6 -15 8 -15 16 -3 7 11 10 12 10 2 0 -7 5 -10 10 -7 6 3
10 1 10 -6 0 -8 4 -8 15 1 8 7 15 8 15 3 0 -5 11 -10 26 -11 14 -1 33 -6 42
-11 11 -6 24 -6 35 0 9 6 17 6 17 2 0 -4 18 -8 40 -8 22 0 40 4 40 9 0 5 6 4
13 -2 7 -6 18 -7 25 -3 6 4 37 4 67 1 31 -3 55 -2 55 3 0 5 6 5 13 -1 7 -6 18
-8 24 -4 6 4 63 5 127 2 64 -3 116 -1 116 4 0 5 6 4 13 -2 7 -6 19 -7 26 -3 7
5 28 5 47 1 21 -5 34 -4 34 2 0 7 4 7 13 0 7 -6 19 -7 26 -3 7 5 28 5 47 1 21
-5 34 -4 34 2 0 7 4 7 13 0 7 -6 18 -8 24 -4 6 4 63 5 127 2 64 -3 116 -1 116
3 0 4 8 4 17 -1 12 -7 24 -5 39 5 15 9 24 11 29 3 4 -6 12 -4 23 6 10 11 17
13 20 5 2 -7 10 -8 20 -2 9 5 25 7 35 6 9 -2 17 1 17 5 0 5 9 7 20 5 11 -2 20
2 20 8 0 7 4 6 10 -3 8 -12 10 -12 16 4 5 14 9 15 15 4 6 -8 9 -9 9 -2 0 7 7
15 16 18 8 3 12 2 9 -4 -3 -6 1 -7 9 -4 9 3 13 10 10 15 -3 5 0 9 5 9 6 0 11
-5 11 -12 0 -6 6 -4 13 7 8 10 19 15 25 11 7 -4 12 -2 12 5 0 7 10 9 26 6 17
-3 24 -1 20 8 -3 9 2 11 16 7 15 -3 19 -2 14 7 -5 8 0 10 18 7 15 -3 24 -1 21
5 -4 5 -1 9 5 9 6 0 9 4 6 8 -3 5 5 8 17 8 15 -1 21 4 19 14 -3 12 -1 12 9 3
10 -10 16 -9 28 5 9 9 23 17 31 17 8 0 14 6 12 13 -2 10 2 10 17 2 17 -9 19
-7 16 11 -4 18 -2 19 13 8 9 -7 14 -10 10 -5 -4 5 -1 15 7 22 17 17 29 18 19
2 -4 -8 -3 -10 2 -5 5 5 9 14 9 20 0 7 10 13 23 15 12 2 20 7 17 12 -3 5 6 12
20 16 13 3 23 9 21 13 -7 10 26 28 46 25 14 -2 16 1 8 16 -9 16 -7 18 10 15
15 -3 20 1 18 13 -2 9 3 16 10 15 6 -2 12 4 12 13 0 8 5 12 10 9 6 -3 10 2 10
12 0 15 2 16 10 3 7 -11 10 -11 10 -2 0 8 5 10 13 6 8 -6 8 -3 -1 9 -12 14
-11 16 7 12 18 -3 20 -1 11 15 -8 16 -7 18 9 15 13 -2 18 1 15 10 -3 7 0 16 7
21 7 4 10 3 5 -4 -3 -6 -2 -14 4 -17 6 -4 10 -3 9 2 -5 26 2 42 16 36 9 -3 15
-2 14 3 -4 21 2 35 12 28 7 -4 9 2 7 17 -2 15 2 23 10 22 6 -2 12 2 12 8 0 6
7 8 18 4 13 -5 14 -4 5 6 -10 10 -7 17 11 33 13 12 26 30 28 41 2 11 9 19 16
18 7 -2 9 4 5 13 -5 13 -1 15 18 10 20 -6 21 -5 7 4 -15 9 -15 14 -5 24 6 8
16 12 20 9 5 -3 4 4 -2 16 -9 17 -9 21 1 19 7 -2 14 7 16 19 2 12 12 25 23 28
16 5 18 10 8 21 -8 10 -8 14 -1 14 7 0 9 8 5 18 -6 15 -5 16 12 2 17 -14 18
-14 8 4 -8 15 -7 26 6 45 9 14 11 22 4 18 -8 -5 -8 -1 0 17 7 13 16 22 22 19
5 -3 5 0 -2 7 -10 11 -9 16 5 27 9 8 11 11 4 8 -11 -6 -11 -3 -3 14 6 12 16
30 21 41 6 12 8 25 5 30 -4 6 -1 10 5 10 6 0 9 4 6 9 -4 5 0 12 6 14 10 4 10
6 0 6 -10 1 -10 5 0 24 13 23 18 52 18 105 -1 19 4 32 12 32 9 0 8 3 -2 10 -8
5 -10 10 -4 10 14 0 25 38 13 45 -4 3 -4 16 1 30 6 16 6 27 -1 31 -7 4 -6 10
1 19 7 9 8 15 1 19 -7 5 -7 15 -1 32 7 18 7 23 -1 18 -8 -4 -8 0 -2 12 10 23
10 55 -1 72 -4 7 -4 18 1 25 10 14 10 38 0 54 -4 6 -3 15 3 18 8 5 8 11 0 20
-7 9 -8 15 -1 19 6 4 7 16 2 28 -4 12 -5 37 -1 55 5 18 4 36 -1 39 -5 3 -5 13
1 24 7 13 7 21 0 25 -8 5 -8 11 0 20 7 9 8 15 1 19 -7 5 -7 15 -1 32 7 18 7
23 -1 18 -8 -4 -8 0 -2 12 10 23 10 55 -1 72 -4 7 -4 18 1 25 10 14 10 38 0
54 -4 6 -3 15 3 18 8 5 8 11 0 20 -7 9 -8 15 -1 19 6 4 7 16 2 28 -4 12 -5 37
-1 55 5 18 4 36 -1 39 -5 3 -5 13 1 24 7 13 7 21 0 25 -8 5 -8 11 0 20 7 9 8
15 1 19 -7 5 -7 15 -1 32 7 18 7 23 -1 18 -8 -4 -8 0 -2 12 10 23 10 55 -1 72
-4 7 -4 18 1 25 10 14 10 38 0 54 -4 6 -3 15 3 18 8 5 8 11 0 20 -7 9 -8 15
-1 19 6 4 7 16 2 29 -4 12 -5 36 -1 52 3 18 1 35 -7 43 -7 8 -11 17 -8 22 3 4
-4 6 -15 3 -12 -3 -20 0 -20 7 0 10 -3 10 -15 0 -10 -8 -15 -9 -15 -1 0 7 -8
8 -25 1 -13 -5 -26 -6 -29 -2 -5 9 -78 8 -93 -1 -7 -4 -15 -3 -18 3 -5 8 -11
8 -20 0 -10 -8 -15 -8 -20 0 -5 8 -10 8 -20 0 -10 -8 -15 -8 -20 0 -5 8 -11 8
-20 0 -8 -7 -20 -8 -27 -4 -17 10 -58 12 -58 1 0 -4 -9 -3 -19 3 -14 7 -22 7
-26 0 -4 -6 -11 -7 -18 -3 -16 10 -57 10 -57 0 0 -4 -9 -3 -19 3 -14 7 -22 7
-26 0 -4 -6 -12 -7 -18 -3 -16 10 -80 10 -94 0 -6 -4 -14 -3 -18 3 -5 8 -10 8
-20 0 -10 -8 -15 -8 -20 0 -5 8 -10 8 -20 0 -10 -8 -15 -8 -20 0 -5 8 -11 8
-20 0 -8 -7 -20 -8 -27 -4 -17 10 -58 12 -58 1 0 -4 -9 -3 -19 3 -14 7 -22 7
-26 0 -4 -6 -11 -7 -18 -3 -16 10 -57 10 -57 0 0 -4 -9 -3 -19 3 -14 7 -22 7
-26 0 -4 -6 -11 -7 -17 -3 -16 9 -117 10 -111 1 2 -5 -7 -4 -21 2 -17 6 -27 6
-32 -1 -4 -7 -10 -7 -18 0 -7 6 -17 6 -26 1 -8 -5 -21 -5 -30 0 -11 6 -21 5
-27 -1 -8 -8 -13 -8 -17 0 -4 7 -15 7 -30 1 -13 -5 -26 -7 -29 -4 -8 8 -95 10
-90 2 2 -5 -7 -4 -21 2 -17 6 -27 6 -32 -1 -4 -7 -10 -7 -18 0 -7 6 -17 6 -26
1 -8 -5 -21 -5 -31 1 -12 6 -20 5 -24 -1 -4 -7 -11 -7 -18 -2 -7 5 -21 6 -32
2 -11 -4 -30 -4 -42 1 -13 5 -25 4 -28 -2 -4 -5 -11 -6 -18 -2 -16 10 -57 10
-57 0 0 -4 -9 -3 -19 3 -14 7 -22 7 -26 0 -4 -6 -11 -7 -18 -3 -16 10 -57 10
-57 0 0 -4 -9 -3 -19 3 -14 7 -22 7 -26 0 -4 -6 -12 -7 -18 -3 -16 10 -80 10
-94 0 -6 -4 -14 -3 -18 3 -5 8 -10 8 -20 0 -10 -8 -15 -8 -20 0 -5 8 -10 8
-20 0 -10 -8 -15 -8 -20 0 -5 8 -11 8 -20 0 -8 -7 -20 -8 -27 -4 -17 10 -58
12 -58 1 0 -4 -9 -3 -19 3 -14 7 -22 7 -26 0 -4 -6 -11 -7 -18 -3 -16 10 -57
10 -57 0 0 -4 -9 -3 -19 3 -14 7 -22 7 -26 0 -4 -6 -12 -7 -18 -3 -16 10 -80
10 -94 0 -6 -4 -14 -3 -18 3 -5 8 -10 8 -20 0 -10 -8 -15 -8 -20 0 -5 8 -10 8
-20 0 -10 -8 -15 -8 -20 0 -5 8 -11 8 -20 0 -8 -7 -20 -8 -27 -4 -17 10 -58
12 -58 1 0 -4 -9 -3 -19 3 -14 7 -22 7 -26 0 -4 -6 -11 -7 -18 -3 -16 10 -57
10 -57 0 0 -4 -9 -3 -19 3 -14 7 -22 7 -26 0 -4 -6 -11 -7 -17 -3 -16 9 -117
10 -111 1 2 -5 -7 -4 -21 2 -17 6 -27 6 -32 -1 -4 -7 -10 -7 -18 0 -7 6 -17 6
-26 1 -8 -5 -21 -5 -30 0 -11 6 -21 5 -27 -1 -8 -8 -13 -8 -17 0 -4 7 -15 7
-30 1 -13 -5 -26 -7 -29 -4 -8 8 -95 10 -90 2 2 -5 -7 -4 -20 1 -16 6 -28 6
-35 -1 -6 -6 -12 -6 -16 1 -5 7 -13 8 -25 2 -10 -6 -23 -6 -31 -1 -9 5 -19 5
-26 -1 -8 -7 -14 -7 -18 0 -4 7 -15 7 -30 1 -13 -5 -26 -7 -29 -4 -8 9 -77 10
-77 2 0 -5 -9 -4 -20 2 -14 8 -20 8 -20 0 0 -8 -6 -8 -20 0 -14 7 -20 7 -20 0z
m-380 -884 c14 0 31 4 37 7 7 4 14 3 18 -3 4 -6 12 -7 18 -3 15 9 63 6 112 -7
22 -6 48 -13 58 -14 10 -1 22 -8 27 -15 4 -8 12 -11 18 -7 6 3 17 -3 25 -14 7
-11 17 -17 20 -13 4 3 7 1 7 -5 0 -7 1 -15 2 -19 1 -5 4 -22 8 -39 4 -18 4
-38 -1 -45 -4 -7 -3 -19 3 -26 6 -7 7 -13 2 -13 -5 0 -7 -43 -4 -96 3 -53 2
-101 -2 -107 -4 -6 -2 -17 4 -24 7 -9 7 -13 0 -13 -6 0 -7 -13 -2 -34 4 -19 4
-40 -1 -47 -4 -7 -3 -19 3 -26 6 -7 6 -13 1 -13 -6 0 -6 -20 -1 -52 4 -29 9
-59 10 -65 1 -7 5 -13 9 -13 5 0 4 -11 -1 -25 -5 -14 -6 -25 -1 -25 5 0 8 -11
6 -25 -1 -14 1 -25 4 -25 4 0 8 -8 9 -17 1 -10 3 -27 4 -38 2 -11 10 -26 18
-33 13 -12 13 -13 0 -6 -10 5 -8 -1 5 -16 11 -13 14 -20 8 -16 -7 4 -13 2 -13
-3 0 -6 4 -11 10 -11 5 0 7 -14 4 -32 -2 -18 -5 -39 -6 -45 -1 -10 -5 -10 -15
-1 -10 8 -12 7 -8 -5 4 -8 1 -18 -6 -23 -8 -5 -10 -3 -4 6 5 9 4 11 -3 6 -7
-4 -12 -14 -12 -21 0 -9 -6 -12 -15 -9 -8 4 -17 -1 -21 -10 -3 -9 -10 -13 -15
-10 -5 3 -9 1 -9 -3 0 -5 -10 -10 -22 -10 -13 -1 -24 -7 -26 -13 -2 -5 -8 -8
-13 -4 -5 3 -9 -1 -9 -8 0 -9 -3 -9 -10 2 -7 12 -10 12 -10 1 0 -7 -6 -11 -15
-7 -8 3 -15 0 -15 -6 0 -7 -4 -7 -13 0 -7 6 -18 8 -24 4 -6 -4 -54 -5 -107 -2
-53 3 -96 1 -96 -4 0 -5 -6 -3 -13 3 -8 6 -17 8 -20 4 -4 -3 -14 0 -24 8 -15
12 -16 12 -8 -1 6 -11 3 -10 -12 3 -11 9 -27 17 -36 17 -9 0 -31 9 -49 19 -17
11 -36 17 -42 14 -6 -4 -4 2 4 12 9 11 10 16 3 11 -8 -4 -13 -2 -13 6 0 11 -2
11 -9 0 -6 -10 -10 -10 -21 3 -7 8 -9 15 -6 15 4 0 4 5 1 10 -5 8 -12 7 -23
-2 -10 -7 -14 -9 -10 -4 7 8 4 14 -34 56 -13 15 -18 19 -12 10 25 -34 25 -43
0 -16 -14 16 -26 33 -26 37 0 4 -13 22 -30 40 -16 18 -27 35 -25 38 3 2 -1 11
-8 19 -9 13 -9 14 0 8 9 -5 11 -2 7 8 -3 9 -10 16 -14 16 -5 0 -7 11 -6 24 2
19 -1 23 -13 19 -9 -4 -13 -3 -9 2 4 4 2 15 -5 23 -10 13 -9 14 3 7 13 -8 13
-7 1 8 -7 9 -10 17 -6 17 4 0 1 7 -6 17 -9 10 -10 18 -4 20 10 3 12 63 2 80
-2 4 -1 17 3 28 4 11 4 29 0 41 -5 11 -4 27 0 34 5 9 4 20 -2 27 -7 9 -7 13 2
13 7 0 10 7 6 16 -4 10 -2 13 6 8 8 -5 9 -2 5 9 -4 10 -1 17 6 17 8 0 6 4 -3
10 -12 7 -12 10 -1 10 7 0 11 6 8 14 -3 8 1 17 10 20 9 4 13 13 9 22 -3 8 -2
13 3 10 5 -3 11 8 15 24 3 19 12 30 22 30 14 0 15 2 3 18 -7 9 -10 14 -5 10
10 -9 44 24 37 37 -2 6 2 4 11 -3 13 -10 15 -9 13 13 -2 14 1 23 6 19 5 -3 7
-10 4 -15 -4 -5 -3 -9 0 -9 3 0 11 14 17 31 8 23 15 29 30 26 16 -5 17 -3 6
11 -10 12 -10 14 0 8 6 -4 12 -3 12 3 0 6 11 13 25 17 14 3 25 10 25 14 0 4 9
10 21 13 13 4 18 10 14 17 -6 9 -2 9 13 1 15 -8 23 -7 32 4 7 8 16 12 21 9 5
-3 9 -1 9 5 0 6 6 8 14 5 8 -3 17 -1 21 5 3 6 15 11 26 11 10 0 19 5 19 11 0
5 5 7 12 3 7 -4 24 -8 38 -8z m-859 -289 c-10 -9 -11 -8 -5 6 3 10 9 15 12 12
3 -3 0 -11 -7 -18z"/>
<path d="M4180 6076 c0 -2 7 -9 15 -16 9 -7 15 -8 15 -2 0 5 -7 12 -15 16 -8
3 -15 4 -15 2z"/>
<path d="M3944 6988 l-19 -23 23 19 c21 18 27 26 19 26 -2 0 -12 -10 -23 -22z"/>
<path d="M5330 5466 c0 -2 8 -10 18 -17 15 -13 16 -12 3 4 -13 16 -21 21 -21
13z"/>
<path d="M8256 5252 c-3 -5 1 -9 9 -9 8 0 12 4 9 9 -3 4 -7 8 -9 8 -2 0 -6 -4
-9 -8z"/>
<path d="M10640 4949 c0 -5 5 -7 10 -4 6 3 10 8 10 11 0 2 -4 4 -10 4 -5 0
-10 -5 -10 -11z"/>
<path d="M5219 4713 c0 -10 -3 -13 -6 -6 -3 10 -8 9 -19 -2 -8 -8 -22 -11 -30
-8 -24 9 -224 9 -224 0 0 -4 -7 -4 -16 1 -10 6 -30 4 -53 -4 -20 -7 -66 -13
-103 -14 -37 0 -69 -4 -72 -9 -3 -5 -16 -8 -29 -8 -13 0 -36 -12 -52 -27 -15
-14 -23 -26 -16 -26 9 0 9 -5 0 -21 -6 -12 -7 -19 -1 -15 13 8 34 -18 24 -30
-4 -4 1 -2 11 5 12 9 17 10 17 2 0 -7 6 -11 13 -10 24 3 38 -1 33 -9 -3 -5 1
-9 9 -9 8 0 15 5 15 11 0 6 5 4 10 -4 5 -8 10 -11 10 -7 0 4 9 3 19 -3 14 -7
21 -6 24 3 4 9 6 9 6 -1 1 -9 6 -10 20 -3 14 8 20 7 24 -3 4 -9 14 -12 28 -9
17 5 20 3 14 -8 -7 -11 -6 -12 6 -2 9 7 20 8 29 3 7 -4 24 -4 36 0 15 6 26 5
30 -1 4 -7 10 -6 19 1 9 7 15 8 19 1 4 -6 13 -8 21 -4 9 3 23 -1 32 -8 11 -10
14 -10 9 -2 -5 9 -2 11 8 7 9 -3 16 -9 16 -13 0 -4 9 -7 20 -7 11 0 20 4 20 9
0 5 6 5 13 -1 7 -6 19 -7 26 -3 7 5 28 5 47 1 21 -5 34 -4 34 2 0 7 4 7 13 0
7 -6 18 -7 26 -3 8 5 27 5 44 0 16 -5 34 -6 38 -3 5 3 9 0 9 -6 0 -6 5 -8 10
-5 6 3 10 1 10 -6 0 -10 3 -10 12 -1 7 7 17 8 29 2 12 -7 20 -6 24 0 4 6 11 7
18 3 16 -10 57 -10 57 0 0 4 9 3 19 -3 14 -7 22 -7 26 0 4 6 11 7 18 3 16 -10
57 -10 57 0 0 4 8 3 18 -2 13 -7 22 -7 29 0 8 8 13 8 17 0 5 -7 15 -7 32 -1
16 7 23 7 19 0 -4 -6 2 -7 17 -1 16 6 32 3 54 -9 21 -12 36 -15 47 -8 11 6 17
5 17 -2 0 -7 6 -8 16 -2 9 5 32 6 50 2 21 -5 34 -4 34 2 0 7 4 7 13 0 7 -6 19
-7 26 -3 7 5 28 5 47 1 21 -5 34 -4 34 2 0 7 4 7 13 0 7 -6 19 -7 26 -3 7 5
28 5 47 1 21 -5 34 -4 34 2 0 7 4 7 13 0 7 -6 19 -7 26 -3 7 5 28 5 47 1 21
-5 34 -4 34 2 0 7 4 7 13 0 7 -6 19 -7 26 -3 7 5 28 5 47 1 21 -5 34 -4 34 2
0 7 4 7 13 0 7 -6 19 -7 26 -3 7 5 28 5 47 1 21 -5 34 -4 34 2 0 7 4 7 13 0 7
-6 19 -7 26 -3 7 5 28 5 47 1 21 -5 34 -4 34 2 0 7 4 7 13 0 7 -6 19 -7 26 -3
7 5 28 5 47 1 21 -5 34 -4 34 2 0 7 4 7 13 0 7 -6 19 -7 26 -3 7 5 28 5 47 1
21 -5 34 -4 34 2 0 7 4 7 13 0 7 -6 19 -7 26 -3 7 5 28 5 47 1 21 -5 34 -4 34
2 0 7 4 7 13 0 7 -6 19 -7 26 -3 7 5 28 5 47 1 21 -5 34 -4 34 2 0 7 4 7 13 0
7 -6 19 -7 26 -3 7 5 28 5 47 1 21 -5 34 -4 34 2 0 7 4 7 13 0 7 -6 19 -7 26
-3 7 5 28 5 47 1 21 -5 34 -4 34 2 0 7 4 7 13 0 7 -6 19 -7 26 -3 7 5 28 5 47
1 21 -5 34 -4 34 2 0 7 5 6 13 -1 8 -6 16 -8 20 -5 3 3 78 5 167 5 130 -2 160
1 154 11 -5 8 -1 8 11 -2 15 -12 17 -12 10 -1 -6 11 -4 13 8 8 9 -3 19 -2 23
4 4 7 10 6 19 -1 10 -8 15 -8 20 0 5 8 10 8 20 0 10 -8 15 -8 20 0 5 8 10 8
20 0 10 -8 15 -8 20 0 5 8 10 8 20 0 10 -8 15 -8 20 0 5 8 10 8 20 0 10 -8 15
-8 20 0 5 8 10 8 20 0 10 -8 15 -8 20 0 5 8 10 8 20 0 10 -8 15 -8 20 0 5 8
10 8 20 0 10 -8 15 -8 20 0 5 8 10 8 20 0 10 -8 15 -8 20 0 5 8 11 8 19 1 9
-7 16 -7 24 1 9 9 12 9 12 0 0 -6 7 -9 15 -6 8 4 13 9 11 13 -3 4 64 8 147 10
102 2 154 6 159 14 5 8 8 7 8 -3 0 -13 1 -13 10 0 5 8 12 11 16 8 4 -4 15 -3
25 2 12 7 20 7 24 0 5 -8 11 -8 20 0 10 8 15 8 20 0 5 -8 10 -8 20 0 8 7 15 7
19 1 4 -5 24 -3 53 5 26 8 53 12 60 10 7 -3 13 -2 13 2 0 4 17 7 38 7 20 0 42
2 47 4 13 7 24 10 63 17 17 4 32 11 32 16 0 5 4 7 9 4 18 -11 5 51 -17 79 -13
17 -21 25 -18 18 4 -6 -10 -3 -31 7 -27 13 -42 15 -50 8 -9 -7 -13 -7 -13 1 0
8 -5 9 -18 2 -13 -7 -23 -6 -30 1 -9 9 -12 9 -12 1 0 -11 -41 -2 -82 18 -10 5
-20 5 -23 -1 -4 -6 -11 -7 -17 -4 -16 10 -118 11 -118 1 0 -5 -5 -5 -11 -2
-13 9 -79 12 -79 5 0 -3 -11 -5 -24 -5 -13 0 -22 3 -20 6 2 4 -3 10 -12 13
-10 4 -13 2 -8 -6 4 -7 3 -8 -5 -4 -20 13 -121 24 -121 13 0 -5 -5 -5 -13 1
-7 6 -18 8 -24 4 -6 -4 -72 -5 -147 -2 -75 3 -136 1 -136 -4 0 -5 -6 -4 -13 2
-7 6 -18 8 -24 4 -6 -4 -72 -5 -147 -2 -75 3 -136 1 -136 -4 0 -5 -6 -4 -13 2
-7 6 -18 8 -24 4 -6 -4 -45 -5 -87 -2 -42 3 -76 1 -76 -4 0 -5 -6 -4 -13 2 -8
7 -18 7 -27 2 -9 -5 -19 -5 -27 2 -9 7 -13 7 -13 -1 0 -7 -5 -9 -12 -5 -17 10
-68 11 -68 0 0 -5 -6 -4 -13 2 -8 7 -18 7 -27 2 -9 -5 -19 -5 -27 2 -9 7 -13
7 -13 -1 0 -7 -5 -9 -11 -5 -17 10 -109 10 -109 0 0 -5 -6 -4 -13 2 -7 6 -18
8 -24 4 -6 -4 -54 -5 -107 -2 -53 3 -96 1 -96 -4 0 -5 -6 -4 -13 2 -7 6 -18 8
-24 4 -6 -4 -54 -5 -107 -2 -53 3 -96 1 -96 -4 0 -5 -6 -4 -13 2 -7 6 -19 7
-26 3 -7 -5 -28 -5 -47 -1 -21 5 -34 4 -34 -2 0 -7 -4 -7 -13 0 -8 7 -18 7
-27 2 -9 -5 -19 -5 -27 2 -9 7 -13 7 -13 -1 0 -7 -5 -9 -12 -5 -17 10 -68 11
-68 0 0 -5 -6 -4 -13 2 -8 7 -18 7 -27 2 -9 -5 -19 -5 -27 2 -9 7 -13 7 -13
-1 0 -7 -5 -9 -12 -5 -17 10 -68 11 -68 0 0 -5 -6 -4 -13 2 -8 7 -18 7 -27 2
-9 -5 -19 -5 -27 2 -9 7 -13 7 -13 -1 0 -7 -5 -9 -12 -5 -17 10 -68 11 -68 0
0 -5 -6 -4 -13 2 -8 7 -18 7 -27 2 -9 -5 -19 -5 -27 2 -9 7 -13 7 -13 -1 0 -7
-5 -9 -11 -5 -17 10 -109 10 -109 0 0 -5 -6 -4 -13 2 -7 6 -18 8 -24 4 -6 -4
-54 -5 -107 -2 -53 3 -96 1 -96 -4 0 -5 -6 -4 -13 2 -7 6 -18 8 -24 4 -6 -4
-54 -5 -107 -2 -53 3 -96 1 -96 -4 0 -5 -6 -4 -13 2 -7 6 -19 7 -26 3 -7 -5
-28 -5 -47 -1 -21 5 -34 4 -34 -2 0 -7 -4 -7 -13 0 -8 7 -18 7 -27 2 -9 -5
-19 -5 -27 2 -9 7 -13 7 -13 -1 0 -7 -5 -9 -12 -5 -16 10 -68 11 -68 1 0 -4
-9 -3 -20 3 -16 9 -20 8 -21 -7z"/>
<path d="M9205 4640 c3 -5 8 -10 11 -10 2 0 4 5 4 10 0 6 -5 10 -11 10 -5 0
-7 -4 -4 -10z"/>
<path d="M10113 4155 c0 -8 4 -12 9 -9 5 3 6 10 3 15 -9 13 -12 11 -12 -6z"/>
<path d="M3350 4106 c0 -2 8 -10 18 -17 15 -13 16 -12 3 4 -13 16 -21 21 -21
13z"/>
<path d="M3465 3980 c4 -6 11 -8 16 -5 14 9 11 15 -7 15 -8 0 -12 -5 -9 -10z"/>
<path d="M9536 3578 c3 -5 10 -6 15 -3 13 9 11 12 -6 12 -8 0 -12 -4 -9 -9z"/>
<path d="M4390 3230 c0 -5 5 -10 11 -10 5 0 7 5 4 10 -3 6 -8 10 -11 10 -2 0
-4 -4 -4 -10z"/>
<path d="M4550 3131 c0 -5 7 -12 16 -15 14 -5 15 -4 4 9 -14 17 -20 19 -20 6z"/>
<path d="M9300 10826 c0 -2 7 -6 15 -10 8 -3 15 -1 15 4 0 6 -7 10 -15 10 -8
0 -15 -2 -15 -4z"/>
<path d="M10356 9857 c3 -10 9 -15 12 -12 3 3 0 11 -7 18 -10 9 -11 8 -5 -6z"/>
<path d="M3116 4048 c3 -5 10 -6 15 -3 13 9 11 12 -6 12 -8 0 -12 -4 -9 -9z"/>
<path d="M10185 3941 c-3 -5 -2 -12 3 -15 5 -3 9 1 9 9 0 17 -3 19 -12 6z"/>
<path d="M3347 3799 c7 -7 15 -10 18 -7 3 3 -2 9 -12 12 -14 6 -15 5 -6 -5z"/>
<path d="M9825 3561 c-3 -5 -2 -12 3 -15 5 -3 9 1 9 9 0 17 -3 19 -12 6z"/>
<path d="M9365 3200 c-3 -5 -1 -10 4 -10 6 0 11 5 11 10 0 6 -2 10 -4 10 -3 0
-8 -4 -11 -10z"/>
<path d="M4276 3042 c-3 -5 1 -9 9 -9 8 0 12 4 9 9 -3 4 -7 8 -9 8 -2 0 -6 -4
-9 -8z"/>
</g>
</svg>
