<?xml version="1.0" standalone="no"?>
<!DOCTYPE svg PUBLIC "-//W3C//DTD SVG 20010904//EN"
 "http://www.w3.org/TR/2001/REC-SVG-20010904/DTD/svg10.dtd">
<svg version="1.0" xmlns="http://www.w3.org/2000/svg"
 width="200.000000pt" height="200.000000pt" viewBox="0 0 200.000000 200.000000"
 preserveAspectRatio="xMidYMid meet">
<metadata>
Created by potrace 1.14, written by Peter Selinger 2001-2017
</metadata>
<g transform="translate(0.000000,200.000000) scale(0.100000,-0.100000)"
fill="#000000" stroke="none">
<path d="M895 1928 c-209 -22 -446 -141 -580 -291 -167 -187 -248 -401 -247
-647 0 -106 7 -150 38 -257 97 -335 388 -593 738 -654 100 -17 311 -6 406 21
141 40 300 133 403 236 49 49 57 68 32 77 -9 4 -33 -12 -62 -41 -274 -269
-687 -333 -1026 -159 -113 58 -189 118 -268 211 -109 128 -188 300 -206 452
-54 435 189 827 598 964 228 77 483 55 698 -61 127 -69 232 -162 309 -275 184
-272 208 -602 65 -891 -35 -71 -38 -103 -9 -103 16 0 68 98 96 179 40 121 49
182 46 331 -3 172 -22 254 -91 391 -61 124 -77 146 -175 247 -195 201 -476
300 -765 270z"/>
<path d="M925 1748 c-53 -31 -75 -93 -55 -153 9 -26 26 -46 66 -72 67 -45 84
-85 61 -150 -18 -51 -8 -54 38 -10 67 61 54 151 -30 204 -70 44 -91 98 -60
153 24 42 18 50 -20 28z"/>
<path d="M707 1608 c-25 -13 -45 -63 -39 -94 2 -14 20 -36 40 -49 48 -33 62
-61 50 -97 -14 -40 -4 -45 26 -15 37 37 35 81 -5 118 -17 16 -35 29 -39 29 -9
0 -20 27 -25 59 -1 9 2 24 7 34 12 24 8 28 -15 15z"/>
<path d="M1186 1598 c-47 -42 -36 -112 23 -143 35 -18 45 -44 36 -93 -7 -35
-6 -35 17 -20 34 22 46 79 24 113 -9 14 -28 31 -41 37 -37 17 -53 71 -31 106
14 24 -1 24 -28 0z"/>
<path d="M421 1186 c-26 -31 40 -204 118 -306 44 -59 150 -149 210 -179 31
-16 62 -18 216 -19 174 0 182 1 235 26 35 17 86 58 143 114 l88 87 36 -25 c20
-13 46 -25 59 -25 13 -1 30 -2 37 -3 18 -3 59 15 85 38 100 88 45 253 -86 259
-22 1 -39 4 -36 6 2 2 -1 12 -7 22 -9 18 -33 19 -548 19 -447 0 -541 -2 -550
-14z m1174 -136 c22 -24 23 -65 1 -89 -22 -24 -74 -21 -92 4 -46 62 39 142 91
85z"/>
<path d="M424 587 c-23 -13 -17 -62 12 -91 l27 -26 507 0 508 0 26 31 c33 38
34 75 4 85 -31 11 -1065 11 -1084 1z"/>
</g>
</svg>
